<?xml version="1.0" standalone="no"?>
<!DOCTYPE svg PUBLIC "-//W3C//DTD SVG 20010904//EN"
 "http://www.w3.org/TR/2001/REC-SVG-20010904/DTD/svg10.dtd">
<svg version="1.0" xmlns="http://www.w3.org/2000/svg"
 width="4096.000000pt" height="3072.000000pt" viewBox="0 0 4096.000000 3072.000000"
 preserveAspectRatio="xMidYMid meet">
<metadata>
Created by potrace 1.16, written by Peter Selinger 2001-2019
</metadata>
<g transform="translate(0.000000,3072.000000) scale(0.100000,-0.100000)"
fill="#000000" stroke="none">
<path d="M0 15360 l0 -15360 20480 0 20480 0 0 15360 0 15360 -20480 0 -20480
0 0 -15360z m28195 11305 c48 -28 121 -104 135 -140 6 -15 10 -38 10 -52 0
-30 -73 -158 -123 -217 l-33 -39 -28 18 c-42 28 -48 50 -51 191 -2 106 0 131
11 127 7 -2 21 0 30 5 15 8 11 13 -27 32 -37 19 -50 21 -81 13 -35 -9 -37 -8
-44 16 -3 14 -9 20 -11 13 -6 -15 -63 -46 -71 -38 -10 11 -40 -25 -35 -43 3
-11 -2 -21 -13 -25 -16 -6 -16 -8 -4 -16 11 -7 12 -12 3 -21 -6 -6 -16 -9 -21
-5 -11 7 -3 56 9 56 5 0 9 7 9 15 0 21 67 93 104 112 87 46 152 45 231 -2z
m-12701 -359 c81 -34 166 -151 166 -227 0 -49 -54 -187 -86 -220 -55 -58 -205
-94 -265 -65 -49 24 -112 83 -103 97 4 7 3 9 -3 6 -14 -9 -42 25 -59 70 -20
57 -17 114 9 164 31 62 105 147 147 170 43 22 146 25 194 5z m5421 -1461 l0
-120 -306 -3 -307 -2 -6 42 c-3 24 -5 78 -5 120 l1 77 56 4 c32 2 172 3 312 3
l255 -1 0 -120z m1719 -798 c-26 -119 -51 -214 -56 -211 -4 3 -5 -2 -2 -11 4
-8 -3 -57 -15 -108 -41 -172 -50 -212 -101 -437 -73 -324 -110 -473 -121 -486
-7 -8 36 -22 148 -49 155 -37 611 -176 768 -234 293 -108 673 -272 855 -369
100 -53 394 -212 532 -288 112 -61 502 -328 698 -477 74 -56 202 -159 286
-229 l151 -127 384 14 c487 18 477 17 1144 70 l70 5 -7 -162 c-4 -90 -10 -188
-13 -218 -3 -30 -5 -75 -5 -99 0 -25 -3 -42 -6 -38 -7 7 -6 237 1 390 4 71 2
89 -10 93 -20 8 -37 8 -195 -4 -351 -27 -474 -34 -1144 -62 -220 -9 -243 -7
-271 25 -5 6 -35 31 -65 56 -30 24 -57 46 -60 49 -3 3 -25 21 -50 40 -25 19
-52 42 -60 51 -8 9 -28 23 -45 32 -16 8 -48 32 -70 53 -43 39 -130 106 -155
117 -61 29 -155 87 -153 96 2 6 -3 8 -10 5 -12 -4 -105 50 -119 71 -4 5 -13
10 -20 11 -35 3 -41 5 -35 11 4 3 -1 11 -12 17 -10 6 -58 37 -106 69 -49 33
-103 67 -119 76 -17 9 -53 31 -80 49 -28 18 -55 32 -62 32 -7 0 -25 10 -41 23
-34 28 -189 116 -258 147 -27 12 -132 62 -233 111 -101 49 -189 90 -195 92 -7
1 -14 5 -17 8 -8 9 -302 116 -340 124 -19 4 -44 15 -54 24 -15 13 -18 13 -11
1 5 -10 1 -8 -13 4 -13 11 -30 16 -42 13 -11 -3 -18 -2 -15 3 6 9 -84 31 -149
35 -45 4 -79 15 -43 15 10 0 17 4 17 9 0 11 -26 23 -65 27 -22 3 -26 1 -18 -7
6 -6 9 -19 6 -28 -4 -12 -2 -12 9 3 8 10 22 16 34 14 17 -5 17 -6 -5 -15 l-25
-10 29 -7 c16 -4 34 -14 40 -23 7 -9 27 -15 50 -15 22 0 33 -3 25 -8 -17 -11
4 -22 26 -13 13 5 15 3 9 -7 -6 -10 -4 -12 8 -7 10 4 17 2 17 -4 0 -7 9 -9 21
-6 12 3 18 3 15 0 -8 -8 44 -34 55 -27 5 3 29 -7 54 -21 25 -15 45 -24 45 -20
0 3 7 -1 16 -9 8 -9 25 -16 36 -16 12 0 50 -16 85 -35 35 -19 69 -34 76 -32 6
1 11 -4 9 -12 -3 -12 -1 -12 14 0 10 8 15 9 11 2 -5 -7 23 -26 80 -54 49 -24
131 -67 183 -97 52 -30 129 -71 170 -92 225 -112 484 -252 550 -298 83 -58
184 -126 335 -224 129 -84 515 -386 523 -409 2 -5 8 -7 13 -3 5 3 9 1 9 -5 0
-6 33 -34 73 -64 39 -29 80 -61 89 -70 9 -10 21 -17 25 -16 23 4 53 -2 53 -11
0 -18 -51 -11 -83 12 -18 12 -72 56 -122 98 -229 192 -482 386 -635 485 -74
48 -160 105 -190 126 -174 122 -164 116 -545 314 -82 43 -175 93 -206 111
-235 140 -894 412 -1260 518 -140 41 -583 151 -834 206 l-100 23 -612 614
c-603 606 -612 614 -625 590 -7 -14 -121 -128 -253 -254 -314 -300 -761 -743
-855 -849 -41 -47 -83 -93 -93 -104 -23 -22 -129 -52 -289 -80 -64 -11 -140
-27 -170 -35 -29 -8 -141 -38 -248 -65 -393 -102 -731 -211 -1055 -340 -135
-53 -416 -180 -495 -223 -397 -213 -703 -404 -1015 -632 -71 -53 -174 -127
-229 -167 -54 -39 -141 -106 -193 -150 -52 -43 -116 -89 -142 -102 -103 -52
-269 -65 -767 -58 l-349 4 -85 28 c-80 27 -230 50 -318 50 l-39 0 -9 -217
c-10 -246 -11 -381 -4 -597 l4 -148 -49 -42 c-144 -120 -320 -334 -601 -731
-238 -335 -444 -688 -549 -940 -26 -61 -70 -164 -100 -230 -94 -212 -187 -436
-237 -575 -143 -392 -189 -525 -213 -616 -32 -121 -34 -128 -40 -122 -7 7 61
263 104 388 80 235 161 460 229 640 39 102 91 241 117 310 26 69 71 175 100
235 29 61 56 125 60 143 3 18 11 32 16 32 5 0 9 6 9 13 0 8 12 27 26 43 14 16
32 42 41 59 9 16 22 35 30 43 8 8 12 21 9 29 -3 8 -2 12 3 9 5 -3 15 9 22 27
40 99 498 801 583 894 45 48 161 170 273 285 110 113 133 142 132 165 -2 26
-2 26 -6 4 -5 -23 -45 -71 -60 -71 -4 0 -30 -23 -56 -50 -27 -28 -52 -50 -55
-51 -4 0 -34 -32 -67 -70 -33 -39 -85 -96 -115 -127 -55 -58 -244 -306 -355
-467 -57 -83 -103 -146 -125 -172 -5 -7 -10 -17 -10 -23 0 -5 -4 -10 -9 -10
-5 0 -14 -13 -21 -30 -7 -16 -19 -35 -27 -42 -20 -16 37 80 177 297 139 216
213 318 290 400 31 33 99 112 153 175 53 63 120 141 149 174 l52 58 -4 102
c-12 253 0 956 16 956 6 0 33 -11 59 -25 48 -24 74 -28 320 -55 50 -5 236 -14
415 -20 273 -9 352 -8 495 5 101 9 203 13 252 9 l82 -7 58 55 c70 66 243 205
491 394 253 192 311 232 437 304 61 35 126 75 145 90 60 46 237 147 379 215
75 36 192 94 261 129 402 207 798 352 1290 472 146 35 306 75 355 89 86 24
280 65 374 80 42 7 70 33 662 625 l618 618 37 -8 c30 -7 68 -39 183 -153 80
-79 215 -211 300 -293 85 -82 292 -287 462 -455 l308 -306 63 -16 c35 -9 131
-29 213 -46 83 -17 159 -33 171 -37 18 -5 20 -2 16 28 -2 18 4 65 13 103 9 39
25 117 35 175 28 148 41 211 51 244 5 16 9 40 9 53 0 13 3 22 8 20 4 -3 8 17
9 45 3 57 15 78 43 73 16 -3 18 1 13 26 -3 19 -1 29 6 29 7 0 9 5 6 10 -3 6 1
10 9 10 9 0 16 5 16 11 0 5 -5 7 -11 3 -8 -5 -9 6 -4 37 4 24 12 47 18 50 5 4
7 14 4 23 -3 8 -2 18 3 21 6 4 10 20 10 37 0 34 19 108 32 123 4 5 8 14 8 20
0 5 -5 3 -11 -5 -9 -12 -9 -11 -4 5 4 11 10 29 13 40 3 11 9 23 15 26 5 4 9
23 9 44 0 28 3 34 10 24 7 -10 8 -4 4 19 -3 19 -1 32 5 32 6 0 7 5 4 10 -3 6
-2 10 3 10 4 0 14 29 21 65 8 37 15 64 18 61 2 -2 -17 -101 -43 -219z m-1666
119 l3 -69 -183 7 c-155 5 -349 6 -498 2 l-35 -1 -3 68 -3 67 358 -2 358 -3 3
-69z m4813 -313 c316 -107 455 -438 308 -730 -38 -75 -175 -190 -282 -237
-140 -62 -251 -55 -447 27 -22 10 -32 -1 -80 -83 -24 -41 -110 -174 -190 -295
-81 -121 -186 -285 -234 -365 -130 -216 -168 -270 -194 -276 -73 -19 -47 27
351 632 84 127 168 259 187 292 19 34 40 60 47 57 7 -2 10 2 7 9 -3 7 9 26 25
42 31 29 39 49 22 56 -18 7 -109 125 -133 173 -14 28 -35 87 -46 132 -25 100
-18 165 31 282 26 62 46 90 107 151 47 47 97 86 134 103 117 57 271 69 387 30z
m-9971 1 c102 -30 190 -89 174 -116 -3 -4 2 -5 11 -2 31 12 141 -118 128 -152
-4 -11 -3 -15 5 -10 17 10 49 -110 44 -166 -4 -52 -16 -65 -18 -20 -6 113 -24
173 -44 142 -6 -9 -10 -10 -10 -3 0 6 5 15 10 18 6 4 7 11 4 17 -4 6 -10 5
-16 -3 -7 -10 -8 -9 -4 5 9 26 -32 70 -50 55 -9 -7 -21 2 -45 36 -30 41 -86
87 -114 91 -5 1 -34 11 -63 23 -131 52 -228 48 -365 -16 -76 -35 -114 -63 -87
-63 10 0 10 -3 0 -15 -7 -8 -17 -12 -24 -8 -6 3 -8 3 -4 -2 4 -4 -10 -27 -31
-51 -21 -24 -46 -65 -55 -91 -10 -27 -21 -56 -27 -65 -5 -10 -10 -32 -10 -50
-1 -25 -3 -27 -6 -10 -3 13 -11 26 -19 29 -9 3 -12 14 -8 32 4 20 3 23 -5 11
-9 -12 -11 -10 -11 12 0 15 5 30 10 33 6 4 8 10 5 15 -14 23 98 190 127 190 5
0 47 25 94 56 47 31 108 64 137 75 66 23 193 25 267 3z m8139 -146 c-11 -29
-50 -125 -86 -213 -36 -88 -103 -254 -150 -370 -47 -115 -93 -228 -103 -250
-10 -22 -37 -85 -60 -140 -78 -184 -92 -213 -115 -235 -21 -20 -26 -21 -39 -7
-14 13 -13 20 9 65 37 78 115 262 115 273 0 6 5 7 12 3 7 -4 8 -3 4 5 -11 17
42 121 58 115 9 -3 16 5 21 23 3 15 12 34 18 41 6 8 12 19 13 26 3 21 66 151
81 168 8 9 12 22 8 27 -3 6 -1 11 5 11 7 0 9 8 5 21 -5 16 -4 19 6 14 9 -6 11
-4 6 8 -3 9 -1 17 4 19 5 2 11 15 13 30 1 15 8 33 14 41 7 8 10 16 7 19 -3 3
1 11 10 18 8 7 15 21 15 32 0 12 4 17 12 12 7 -4 8 -3 4 4 -9 14 4 63 14 57 9
-6 23 29 24 60 1 11 7 19 14 18 6 -2 12 2 12 8 0 32 33 119 42 113 7 -5 9 0 6
14 -4 15 -2 22 8 22 11 0 9 -11 -7 -52z m-8292 -18 c-3 -8 -8 -24 -13 -35 -7
-17 -3 -16 25 8 56 47 56 29 0 -30 -30 -32 -66 -74 -79 -93 -47 -66 -118 -112
-89 -57 7 12 18 25 25 30 7 4 10 15 7 24 -4 10 -2 14 4 10 6 -4 10 5 9 22 -1
15 -6 28 -12 28 -6 0 -9 -9 -6 -20 3 -14 1 -18 -6 -13 -7 4 -12 1 -12 -9 0 -9
-14 -30 -31 -48 l-31 -32 7 65 c10 101 21 126 68 153 23 14 51 27 62 29 31 6
77 -14 72 -32z m249 28 c10 -16 -42 -57 -138 -109 -99 -53 -176 -127 -217
-210 -39 -78 -39 -89 -2 -89 37 0 99 47 215 163 121 120 187 161 225 137 16
-9 -3 -28 -113 -110 -189 -141 -306 -212 -343 -208 -23 3 -33 -5 -64 -52 -20
-30 -49 -78 -64 -107 -29 -59 -45 -67 -45 -25 0 29 64 162 104 215 12 18 39
59 59 92 39 66 185 219 251 264 65 44 119 60 132 39z m4693 -90 c17 -42 377
-387 692 -663 288 -252 382 -339 371 -343 -13 -4 -82 52 -270 218 -65 58 -157
136 -203 175 -46 38 -144 124 -217 190 -216 194 -354 315 -361 315 -3 0 -7
-42 -9 -93 -2 -87 -20 -232 -27 -225 -2 2 -5 72 -6 155 -1 83 -5 156 -8 162
-8 13 -106 -49 -171 -109 -40 -37 -205 -175 -510 -430 -58 -49 -133 -110 -167
-137 -34 -26 -113 -92 -177 -145 -105 -90 -146 -114 -146 -88 0 6 7 10 15 10
16 0 124 90 230 191 33 32 101 90 150 130 50 40 128 107 175 148 47 42 117
103 155 136 121 103 358 318 410 372 28 28 53 52 58 52 4 1 12 -9 16 -21z
m-1789 -258 c14 -95 26 -156 66 -342 22 -104 25 -132 16 -153 -26 -57 -40 -24
-71 175 -11 69 -19 132 -19 140 0 8 -5 66 -11 128 -6 62 -8 118 -5 124 5 7 2
8 -6 3 -10 -6 -12 -4 -7 9 4 10 7 23 8 29 1 28 17 -34 29 -113z m12298 81 c80
-41 152 -130 159 -197 6 -59 -4 -117 -19 -108 -7 4 -8 3 -4 -5 10 -15 -3 -53
-15 -46 -5 4 -9 0 -9 -9 0 -8 -18 -32 -40 -54 -28 -29 -45 -39 -60 -35 -11 3
-20 8 -20 10 0 3 8 3 18 1 10 -3 27 1 37 8 10 8 15 14 11 14 -5 0 3 9 17 21
16 12 26 29 25 42 -1 12 2 33 6 47 6 19 5 21 -3 10 -10 -13 -15 -8 -12 13 3
18 -86 5 -128 -19 -45 -25 -139 -36 -187 -20 -16 5 -23 0 -33 -20 -16 -37 -6
-42 14 -7 15 26 14 16 -2 -24 -4 -11 -3 -14 5 -9 8 4 10 2 6 -8 -4 -10 6 -18
30 -27 29 -11 33 -15 23 -28 -10 -12 -9 -13 12 -2 13 7 21 8 17 3 -3 -6 -2
-13 4 -17 5 -3 10 -10 10 -15 0 -6 -20 0 -45 12 -25 12 -45 28 -45 35 0 7 -6
12 -12 11 -7 -2 -12 3 -10 10 1 6 -3 11 -9 10 -18 -5 -58 83 -64 140 -7 65 7
112 51 170 79 104 182 139 272 93z m-13502 -441 c150 -381 174 -446 174 -477
0 -37 -21 -24 -52 33 -42 77 -150 353 -142 366 5 7 3 8 -6 3 -10 -6 -12 -3 -8
13 4 12 2 20 -3 16 -8 -5 -13 13 -12 44 1 7 -2 11 -5 8 -9 -9 -33 54 -25 67 3
5 2 7 -4 4 -5 -3 -17 14 -26 38 -11 32 -12 44 -4 42 7 -1 15 -6 18 -10 3 -5 9
-1 12 8 4 9 3 13 -3 10 -6 -3 -10 2 -10 12 0 15 -2 16 -10 3 -6 -9 -10 -10
-10 -3 0 6 5 15 10 18 6 3 10 11 10 16 0 6 -4 7 -10 4 -5 -3 -10 3 -10 15 0
14 -4 19 -12 14 -9 -5 -9 -2 1 9 7 9 9 17 3 17 -12 0 -23 40 -15 54 4 5 10 1
14 -10 5 -10 61 -152 125 -314z m4397 284 c-7 -78 -45 -326 -54 -356 -19 -59
-31 -33 -24 51 11 130 37 305 48 319 14 17 32 9 30 -14z m-6743 -125 c53 -98
184 -216 267 -239 29 -9 77 -10 151 -6 59 4 120 7 135 7 18 0 25 4 21 11 -4 7
-3 8 5 4 18 -12 4 -23 -36 -31 -21 -4 -44 -12 -51 -17 -18 -15 -242 -21 -242
-7 0 7 -10 9 -26 5 -14 -4 -23 -3 -20 2 3 5 -11 14 -29 21 -21 7 -56 37 -89
76 -30 35 -57 61 -62 57 -4 -4 -4 -2 -1 4 4 7 0 17 -8 24 -7 6 -11 19 -8 27 5
12 3 14 -7 8 -8 -5 -11 -4 -7 2 4 6 0 18 -7 29 -8 10 -11 25 -8 33 4 10 1 12
-8 6 -9 -5 -11 -4 -6 3 4 7 1 12 -6 13 -10 0 -10 2 0 6 6 2 12 12 13 21 0 10
4 6 8 -9 5 -14 14 -36 21 -50z m7634 -18 c3 -4 -12 -73 -33 -152 -21 -79 -47
-175 -57 -213 -10 -37 -24 -75 -32 -83 -25 -24 -34 -1 -21 53 16 68 95 343
108 377 10 27 25 35 35 18z m-2257 -119 c85 -113 144 -210 221 -362 41 -80 79
-151 86 -159 9 -12 6 -13 -19 -7 -42 10 -49 20 -85 121 -28 76 -152 305 -166
305 -2 0 3 -17 12 -37 9 -21 54 -128 99 -238 45 -110 103 -243 128 -295 32
-66 59 -144 87 -254 22 -88 40 -165 40 -170 0 -6 -11 1 -24 15 -13 16 -41 83
-65 159 -24 73 -71 195 -106 271 -83 178 -109 240 -156 372 -21 59 -45 120
-53 135 l-14 27 -5 -25 c-3 -14 -15 -74 -26 -135 l-20 -110 30 -85 c31 -87
129 -275 204 -390 48 -74 87 -118 128 -145 15 -10 26 -20 23 -22 -9 -9 -64 28
-102 69 -58 64 -214 310 -265 418 -17 38 -38 71 -45 74 -13 5 -54 -87 -54
-120 0 -21 -36 -91 -75 -144 -18 -25 -56 -85 -85 -135 -35 -61 -76 -113 -127
-162 -41 -40 -76 -73 -77 -73 -9 0 127 247 178 324 86 130 253 464 270 538 24
104 27 166 8 173 -23 9 -35 -9 -92 -135 -28 -63 -55 -119 -59 -125 -5 -5 -40
-73 -79 -150 -39 -77 -96 -186 -127 -243 -32 -57 -78 -156 -105 -221 -46 -116
-69 -164 -70 -148 0 4 7 24 15 44 9 20 25 73 36 117 27 110 47 159 157 386
148 306 213 452 210 472 -3 16 96 137 113 138 3 0 28 -31 56 -68z m-4522 -323
c-4 -5 -1 -9 4 -9 6 0 11 -7 11 -15 0 -8 4 -15 8 -15 4 0 25 -30 47 -67 21
-38 58 -98 82 -135 24 -38 40 -68 35 -68 -4 0 -2 -4 4 -8 20 -12 244 -380 244
-400 0 -2 -6 -1 -13 4 -7 5 -3 0 9 -11 41 -38 54 -93 24 -103 -7 -3 -10 0 -6
6 3 5 0 12 -8 15 -13 5 -105 149 -166 262 -18 33 -37 65 -42 72 -5 7 -5 14 2
18 5 3 10 1 10 -6 0 -7 3 -10 6 -7 10 11 -17 50 -31 45 -8 -4 -11 1 -8 12 5
21 -32 87 -41 73 -3 -6 0 -12 6 -15 7 -2 10 -8 5 -12 -14 -16 -30 11 -18 33 8
16 6 23 -12 38 -22 19 -22 19 -4 -2 18 -22 12 -41 -7 -21 -24 26 -39 48 -30
45 9 -3 14 4 14 23 0 8 -4 8 -14 0 -11 -9 -16 -9 -22 0 -4 7 -3 9 3 6 26 -16
21 28 -7 68 -17 24 -30 46 -30 49 0 3 -14 29 -31 58 -32 54 -45 93 -28 83 5
-4 7 -11 4 -16z m-947 -111 c50 -57 141 -161 203 -233 116 -135 201 -231 280
-319 147 -163 340 -394 348 -417 4 -14 -85 80 -120 126 -13 17 -39 48 -58 71
-20 22 -49 56 -65 75 -17 18 -66 75 -110 124 -45 50 -103 117 -131 149 -27 32
-100 116 -160 185 -61 69 -143 167 -184 216 -41 50 -81 98 -89 108 -8 9 -13
17 -10 17 4 0 47 -46 96 -102z m1734 -47 c22 -47 56 -120 75 -161 44 -94 93
-215 93 -229 0 -31 -24 -3 -54 62 -66 143 -176 406 -176 420 0 24 27 -16 62
-92z m7548 6 c0 -13 -23 -66 -50 -118 -28 -51 -71 -135 -95 -185 -48 -98 -69
-124 -86 -107 -7 7 0 27 23 64 19 30 45 77 58 104 13 28 40 87 62 133 59 128
88 163 88 109z m-2200 -49 c0 -34 -53 -320 -76 -407 -14 -56 -12 -71 10 -71 7
0 83 -20 167 -44 226 -63 208 -61 220 -29 6 16 31 105 55 198 53 205 73 265
85 265 5 0 9 -2 9 -4 0 -22 -48 -220 -80 -331 -22 -77 -40 -145 -40 -151 0
-11 29 -21 255 -90 83 -26 179 -59 214 -75 35 -16 65 -28 67 -27 11 12 87 203
113 283 49 152 63 185 77 185 8 0 14 -9 14 -19 0 -26 -63 -199 -147 -406 -78
-190 -95 -237 -214 -584 -46 -134 -89 -251 -96 -260 -20 -28 -27 -2 -13 52 18
71 168 487 186 515 8 12 12 27 9 31 -3 5 8 46 24 91 l28 81 -46 24 c-26 13
-96 37 -156 55 -61 17 -159 47 -218 67 -60 19 -110 33 -112 31 -2 -2 -17 -59
-35 -128 -24 -96 -153 -565 -175 -637 -3 -7 -10 -13 -16 -13 -21 0 -1 102 67
337 36 125 80 280 97 343 l32 115 -185 46 c-102 26 -192 50 -201 54 -16 6 -20
-12 -75 -340 -8 -49 -28 -155 -45 -235 -16 -80 -29 -162 -29 -182 0 -41 -6
-45 -35 -24 -19 14 -19 16 3 113 13 54 45 216 72 359 27 144 52 273 55 287 6
24 5 25 -92 42 -54 9 -108 19 -120 22 -19 4 -22 0 -28 -44 -24 -168 -59 -259
-95 -248 -26 8 -30 -11 -29 -175 1 -143 -20 -280 -42 -280 -11 0 -12 -6 7 102
12 70 15 122 10 209 -8 140 0 171 42 163 26 -5 31 -2 44 33 9 21 24 93 34 161
10 69 22 122 28 122 6 0 65 -11 130 -25 66 -14 121 -23 123 -22 4 4 67 330 83
425 8 50 16 72 26 72 9 0 14 -11 14 -32z m5340 17 c-7 -8 -9 -15 -5 -15 4 0 2
-6 -4 -13 -6 -8 -8 -16 -5 -20 6 -5 29 11 66 46 10 9 18 13 18 9 0 -5 -10 -17
-22 -29 -13 -11 -92 -92 -176 -180 -158 -165 -215 -211 -232 -184 -13 22 2 44
94 136 46 45 86 90 89 99 4 10 16 20 27 23 11 3 17 10 13 17 -3 6 0 5 8 -2 12
-11 12 -14 -1 -22 -8 -5 -17 -7 -21 -4 -4 2 -11 -1 -15 -7 -4 -8 -3 -9 4 -5
17 11 14 -5 -5 -26 -13 -14 -13 -18 -2 -18 11 0 12 -2 1 -9 -11 -6 -10 -10 4
-15 10 -4 15 -4 12 0 -4 3 4 18 18 32 13 15 24 32 24 39 0 7 7 13 15 13 8 0
15 5 15 11 0 5 5 7 10 4 6 -3 10 0 10 8 0 8 7 18 16 21 8 3 12 11 9 16 -4 6
-3 10 2 9 20 -3 25 2 13 16 -10 12 -16 13 -26 4 -28 -23 -13 2 19 31 35 32 46
38 27 15z m-8570 -107 c13 -62 31 -161 39 -220 9 -59 19 -110 23 -114 4 -4 38
0 75 9 38 9 88 17 113 19 39 3 45 0 45 -17 0 -15 -8 -21 -32 -25 l-31 -5 45
-105 c24 -58 82 -190 128 -295 72 -162 135 -328 135 -352 0 -4 -26 37 -57 92
-65 113 -139 281 -223 503 -32 85 -61 156 -64 159 -6 6 -126 -14 -134 -22 -3
-3 6 -85 21 -183 15 -97 31 -215 37 -262 5 -47 17 -120 25 -163 16 -84 20
-207 7 -207 -9 0 -67 286 -82 405 -16 125 -61 379 -70 388 -4 5 -68 -9 -141
-31 -74 -22 -163 -48 -199 -57 -36 -9 -81 -20 -101 -26 l-36 -9 44 -142 c61
-195 169 -575 177 -620 4 -22 3 -38 -2 -38 -17 0 -62 111 -101 248 -51 181
-123 416 -160 522 -26 76 -120 405 -135 471 -4 20 -1 29 11 33 9 4 20 3 25 -2
10 -10 118 -388 118 -413 0 -10 3 -20 8 -22 4 -3 83 17 177 44 93 27 199 54
235 61 36 6 69 14 73 18 4 4 -1 58 -12 121 -26 146 -50 332 -44 342 2 4 12 7
22 7 14 0 22 -20 41 -112z m-5157 40 c-2 -5 2 -8 10 -8 12 0 106 -92 178 -175
14 -17 50 -52 80 -80 30 -27 72 -76 94 -107 30 -43 43 -54 55 -48 8 4 53 43
100 87 47 43 107 96 134 118 l49 39 16 -24 c9 -14 34 -47 57 -75 61 -75 61
-76 -9 -137 -209 -183 -454 -388 -465 -388 -16 0 -132 112 -132 128 0 9 50 64
112 122 l112 106 -39 55 c-21 30 -114 131 -207 225 -92 94 -168 176 -168 183
0 9 3 9 14 -1 8 -7 12 -16 9 -20z m6815 -290 c33 -45 114 -172 180 -280 120
-195 359 -557 391 -590 11 -12 45 -21 116 -28 121 -14 314 -44 450 -71 210
-42 433 -91 495 -109 151 -45 519 -173 589 -206 42 -20 115 -53 162 -74 125
-56 271 -130 293 -149 10 -9 19 -14 20 -12 1 4 67 -29 111 -55 74 -44 167 -85
181 -80 12 5 15 2 10 -10 -5 -14 -4 -15 8 -5 8 7 16 8 18 3 1 -5 36 -26 76
-47 39 -20 72 -42 72 -48 0 -6 3 -8 6 -4 6 6 109 -59 137 -87 8 -8 17 -13 19
-10 3 2 17 -7 31 -20 15 -14 27 -23 27 -20 0 8 122 -80 210 -150 302 -244 482
-417 755 -731 43 -49 124 -137 179 -194 l101 -104 -91 76 c-50 42 -133 122
-185 179 -191 209 -484 462 -769 663 -58 40 -149 106 -202 147 -177 133 -368
248 -736 441 -277 145 -739 318 -1157 433 -393 108 -405 111 -572 129 -120 13
-234 37 -296 61 -17 6 -17 3 3 -37 13 -24 61 -102 109 -173 103 -154 177 -264
336 -505 66 -100 151 -225 189 -279 38 -53 119 -172 180 -264 242 -366 370
-557 429 -644 61 -89 268 -404 300 -455 18 -30 -26 -25 467 -59 157 -10 427
-26 600 -35 173 -9 389 -22 480 -30 91 -8 224 -16 295 -20 365 -17 1057 -66
1330 -95 55 -5 171 -13 258 -17 86 -3 157 -9 157 -13 0 -4 -7 -13 -15 -20 -26
-22 -175 -267 -208 -343 -36 -82 -55 -110 -68 -101 -5 3 -9 1 -9 -5 0 -6 -7
-8 -15 -5 -11 5 -13 2 -9 -10 5 -12 2 -15 -10 -10 -18 7 -19 -14 -1 -29 6 -5
3 -7 -7 -4 -17 6 -46 -19 -34 -30 3 -3 6 -1 6 6 0 7 5 9 10 6 6 -4 0 -15 -14
-26 -14 -11 -37 -42 -52 -69 -15 -28 -30 -50 -34 -50 -4 0 -7 -19 -8 -42 l-2
-42 30 32 c28 31 41 60 21 47 -5 -3 -13 0 -17 7 -4 7 -4 10 1 6 4 -4 15 -2 23
5 13 9 14 9 8 0 -4 -7 -2 -13 3 -13 6 0 11 6 11 14 0 7 11 21 24 32 14 10 23
21 20 26 -7 11 19 48 33 48 7 0 13 6 13 13 0 6 17 28 37 47 30 29 33 31 23 10
-7 -14 -21 -36 -30 -50 -95 -139 -170 -262 -170 -278 0 -12 -21 -51 -47 -89
-48 -70 -101 -163 -233 -413 -42 -80 -100 -185 -129 -235 -30 -49 -80 -144
-111 -210 -32 -66 -109 -208 -170 -315 -62 -107 -123 -217 -137 -245 -14 -27
-45 -82 -68 -120 -24 -39 -62 -109 -85 -155 -24 -47 -75 -139 -115 -205 -85
-142 -332 -574 -398 -695 -25 -47 -72 -132 -105 -190 l-59 -105 23 -30 c25
-34 85 -152 113 -223 11 -26 90 -193 177 -372 165 -342 237 -497 311 -670 24
-58 71 -159 103 -225 80 -164 111 -237 105 -243 -3 -3 -5 0 -5 6 0 6 -6 17
-13 24 -7 7 -24 36 -38 64 -14 28 -37 66 -50 85 -13 19 -23 35 -21 37 7 7 0
22 -8 17 -5 -3 -11 0 -12 7 0 7 -2 18 -2 24 -1 6 -7 22 -13 35 -7 13 -24 53
-38 89 -15 36 -35 84 -46 107 -10 24 -19 47 -19 53 0 5 -5 10 -10 10 -6 0 -9
3 -8 8 8 24 -109 275 -124 266 -6 -4 -8 -2 -5 3 4 6 -9 42 -29 79 -20 38 -35
71 -35 74 1 3 -5 12 -12 20 -7 9 -11 22 -9 29 3 8 0 11 -5 8 -5 -3 -10 -1 -10
6 0 18 -41 105 -54 112 -6 4 -8 14 -5 22 4 9 -2 22 -11 30 -10 8 -13 12 -6 9
6 -4 -3 16 -20 42 -18 27 -35 47 -39 45 -4 -2 -6 2 -3 9 2 7 -2 22 -10 33 -14
18 -16 18 -32 2 -17 -16 -12 -21 17 -19 3 0 6 -12 6 -26 2 -35 26 -102 37
-102 5 0 6 -4 3 -9 -3 -4 3 -19 14 -31 22 -25 26 -35 11 -25 -12 7 19 -58 31
-66 8 -5 15 -25 17 -52 1 -4 4 -6 9 -6 18 3 26 -2 14 -10 -10 -6 -9 -11 4 -22
15 -12 17 -12 9 0 -5 9 -4 12 2 8 6 -4 9 -19 7 -34 -2 -16 -1 -22 2 -15 7 15
21 -7 49 -81 10 -26 21 -45 24 -43 4 3 7 -3 8 -12 2 -28 9 -51 16 -58 4 -4 7
-13 7 -20 0 -8 11 -37 24 -66 13 -29 55 -125 94 -213 38 -88 86 -190 106 -228
20 -37 36 -73 36 -81 0 -7 7 -19 15 -26 9 -7 14 -15 11 -17 -2 -2 7 -15 21
-29 20 -20 24 -32 19 -55 -3 -17 -1 -29 5 -29 6 0 7 5 4 10 -3 6 -1 10 5 10
13 0 30 -43 30 -76 0 -13 4 -24 9 -24 6 0 9 -8 9 -17 -1 -10 15 -51 35 -92 20
-41 37 -81 37 -88 0 -8 17 -46 38 -86 21 -40 62 -128 91 -197 30 -69 73 -165
97 -214 24 -48 44 -95 44 -103 0 -8 5 -11 10 -8 6 3 10 1 10 -4 0 -6 14 -41
32 -78 18 -38 31 -71 30 -75 -1 -5 2 -8 6 -8 12 0 30 -40 58 -125 44 -135 139
-345 156 -345 5 0 6 -5 3 -10 -4 -6 -11 -8 -16 -4 -6 3 -3 -11 5 -31 9 -21 16
-40 16 -44 0 -3 4 0 9 7 5 9 10 2 14 -23 9 -55 67 -167 83 -161 9 3 11 0 7
-11 -4 -9 1 -19 10 -25 10 -5 17 -15 17 -23 0 -8 9 -19 20 -25 11 -6 19 -14
16 -18 -2 -4 -1 -26 4 -49 4 -23 4 -40 -1 -38 -4 3 -10 -1 -13 -7 -3 -7 -4 -4
-1 8 3 12 1 32 -4 45 -7 19 -8 15 -6 -21 2 -25 4 -49 4 -53 1 -5 6 -5 11 -2
10 6 11 5 15 -32 1 -13 8 -30 15 -38 10 -13 10 -19 -4 -34 -10 -11 -27 -18
-39 -15 -11 2 -61 6 -111 9 -50 3 -118 10 -151 15 -106 17 -360 49 -432 55
-23 2 -50 8 -60 14 -15 9 -13 10 12 6 61 -10 583 -65 679 -71 l99 -7 -7 24
c-4 13 -8 32 -7 42 0 9 -4 15 -9 12 -14 -9 -42 41 -51 92 -5 25 -36 105 -69
178 -33 73 -60 136 -60 140 0 5 -17 47 -39 94 -21 47 -63 142 -92 211 -29 69
-77 174 -106 233 -29 59 -53 109 -53 111 0 2 -18 43 -40 90 -22 47 -40 88 -40
90 0 7 -119 272 -210 466 -45 96 -91 195 -102 220 -11 25 -40 87 -64 138 -24
51 -44 96 -44 100 0 4 -29 68 -64 142 -36 74 -104 221 -152 325 -48 105 -99
213 -115 240 -15 28 -43 86 -62 130 -19 44 -65 143 -102 220 -37 77 -112 235
-167 350 -55 116 -110 223 -121 239 l-21 29 24 41 c13 23 51 93 84 156 60 113
187 331 292 500 57 94 339 583 417 725 27 49 57 101 66 115 10 14 39 66 66
115 26 50 72 131 100 180 29 50 74 131 100 180 95 179 119 223 208 385 50 91
114 206 142 255 29 50 71 127 93 172 39 77 268 468 318 544 13 19 24 38 24 41
0 3 -17 9 -37 13 -21 4 -53 16 -70 27 -44 27 -43 56 6 154 22 43 38 80 36 82
-2 2 -158 13 -347 23 -189 10 -426 25 -528 33 -102 8 -228 18 -280 21 -52 3
-228 14 -390 25 -162 11 -385 24 -495 30 -308 16 -686 38 -943 55 -128 9 -237
13 -242 10 -16 -10 -39 7 -83 63 -36 47 -332 483 -558 822 -365 549 -507 762
-570 850 -67 94 -331 489 -421 630 -193 300 -566 858 -612 914 l-24 28 -51
-73 c-356 -511 -471 -682 -464 -692 3 -6 2 -7 -4 -4 -13 8 -186 -250 -177
-265 4 -7 3 -8 -4 -4 -14 8 -36 -30 -26 -46 4 -6 3 -8 -3 -5 -11 7 -234 -314
-819 -1183 -91 -135 -219 -321 -284 -415 -65 -93 -162 -235 -216 -315 -55 -80
-128 -181 -163 -224 -35 -44 -69 -93 -77 -110 l-13 -31 -1 27 c0 17 -7 29 -19
33 -21 6 -455 -9 -706 -25 -532 -34 -649 -42 -825 -55 -107 -8 -352 -26 -545
-40 -192 -14 -447 -35 -565 -46 -118 -11 -287 -25 -375 -31 -88 -6 -162 -12
-165 -15 -2 -2 12 -52 33 -110 45 -127 43 -133 -50 -133 -84 0 -121 18 -180
88 -52 62 -85 95 -121 120 -22 14 -136 174 -149 208 -4 10 6 7 32 -10 21 -14
50 -26 64 -26 14 0 125 -1 246 -3 121 -1 287 2 369 7 133 7 149 10 153 27 5
19 23 27 23 11 0 -5 7 -9 15 -9 16 0 28 24 20 38 -4 5 0 6 8 3 18 -6 67 53 60
72 -3 8 10 22 29 34 18 11 29 20 25 20 -4 0 -3 9 3 20 6 11 15 18 20 15 5 -3
26 20 47 50 127 185 205 277 418 494 126 128 275 272 329 320 172 149 405 343
515 428 58 45 115 91 126 103 12 11 24 20 28 20 15 0 167 92 167 101 0 5 3 9
8 8 17 -3 51 14 46 22 -3 5 3 6 12 2 13 -5 15 -3 9 7 -5 8 -4 11 2 7 6 -4 62
23 124 60 63 37 128 74 145 83 16 9 44 26 61 38 17 12 35 22 40 22 4 0 45 23
91 50 46 28 89 50 95 50 7 0 21 6 32 13 23 16 147 63 188 72 15 3 25 9 22 14
-2 5 2 12 11 15 8 3 12 2 9 -4 -9 -15 12 -12 28 5 8 8 17 11 21 8 3 -3 11 -1
18 4 14 12 99 46 228 93 85 30 103 37 150 59 23 10 23 11 2 7 -13 -2 -20 0
-16 6 4 6 23 8 45 4 21 -3 40 -2 44 4 3 5 17 10 31 10 14 0 37 6 53 14 41 22
389 121 526 150 66 14 199 39 295 56 96 17 202 36 235 43 l60 13 61 97 c33 53
70 107 82 120 12 13 22 26 22 28 0 3 -33 2 -72 -2 -219 -22 -499 -42 -505 -35
-4 4 -2 11 5 15 17 10 249 38 437 52 174 12 147 -6 269 179 45 69 111 169 147
222 120 181 187 293 195 322 l7 30 22 -46 c12 -26 49 -84 83 -130z m6283 49
c79 -66 404 -377 404 -387 0 -4 -35 -40 -77 -79 l-78 -73 -27 22 c-16 12 -82
72 -148 133 -66 62 -159 148 -207 191 -49 43 -88 82 -88 87 0 5 26 36 58 70
31 33 61 67 65 75 13 23 30 17 98 -39z m-9151 -112 c23 -54 74 -228 91 -310 7
-33 13 -61 15 -63 1 -2 46 16 100 39 54 23 113 43 130 44 17 2 78 19 136 39
107 37 212 58 193 38 -10 -10 -170 -69 -252 -93 -24 -7 -43 -18 -43 -25 0 -7
27 -86 61 -176 82 -220 122 -333 158 -457 33 -109 38 -142 21 -125 -11 11
-242 638 -260 706 -6 21 -16 41 -23 44 -22 8 -102 -22 -99 -37 2 -8 19 -68 38
-133 34 -122 40 -171 9 -74 -19 57 -75 201 -80 206 -2 2 -20 -2 -40 -9 -25 -9
-35 -18 -32 -29 3 -8 29 -76 57 -150 29 -74 89 -241 135 -370 45 -129 86 -243
90 -252 5 -13 3 -18 -8 -18 -21 0 -61 53 -90 121 -25 55 -116 329 -182 544
-20 66 -38 121 -39 122 -1 2 -56 -20 -122 -48 -65 -28 -173 -71 -239 -97 -66
-25 -122 -47 -124 -48 -1 -2 68 -150 154 -331 147 -306 203 -438 190 -451 -3
-3 -12 1 -19 9 -17 17 -124 229 -181 359 -31 69 -161 350 -180 387 -1 2 -48
-23 -106 -55 -57 -32 -133 -71 -169 -87 -35 -17 -88 -41 -117 -55 l-52 -25
200 -340 c222 -376 244 -415 230 -415 -25 0 -90 100 -326 498 -76 127 -141
232 -146 232 -4 0 -67 -36 -141 -80 -73 -44 -140 -83 -148 -88 -11 -7 10 -47
112 -203 236 -364 334 -526 326 -535 -5 -4 -131 186 -313 471 -157 246 -373
567 -391 581 -13 10 -9 24 6 24 4 0 54 -69 110 -152 56 -84 108 -159 115 -166
9 -10 41 4 161 73 82 47 150 89 152 94 2 6 -73 147 -172 323 -22 38 -17 60 8
39 23 -19 109 -157 156 -250 23 -44 44 -81 47 -81 3 0 18 9 34 21 16 11 117
63 224 115 l195 95 -14 32 c-7 18 -48 108 -91 200 -74 163 -84 202 -48 195 18
-3 136 -250 169 -354 l17 -51 141 57 c77 32 187 75 243 96 l102 39 -49 141
c-59 173 -90 281 -82 288 15 16 35 2 52 -39z m6030 -100 c0 -2 -12 -21 -26
-42 -27 -39 -194 -370 -194 -384 0 -4 86 -51 192 -103 105 -53 219 -112 254
-132 58 -33 97 -64 78 -64 -11 0 -426 206 -488 243 -48 28 -51 28 -63 10 -35
-46 -336 -660 -357 -725 -3 -11 -11 -15 -22 -11 -12 4 -14 14 -10 36 3 16 90
192 193 391 102 199 224 435 270 525 97 191 139 261 159 261 8 0 14 -2 14 -5z
m600 -362 c0 -5 -15 -24 -33 -43 -19 -19 -33 -37 -33 -40 0 -16 -81 -158 -212
-366 -172 -276 -327 -536 -366 -611 -26 -52 -54 -74 -41 -33 13 40 334 574
445 740 20 30 67 109 104 175 72 128 111 185 127 185 5 0 9 -3 9 -7z m-9652
-60 c17 -39 211 -261 376 -432 45 -46 72 -79 61 -73 -31 16 -352 353 -431 453
l-32 39 -131 -137 c-72 -76 -131 -144 -131 -152 0 -10 -7 -8 -25 9 -32 30 -32
48 1 60 33 13 37 13 28 -2 -4 -7 -3 -8 5 -4 6 4 9 11 6 16 -5 9 24 25 40 21 5
-2 6 1 2 5 -7 7 199 224 213 224 3 0 11 -12 18 -27z m6654 -8 c131 0 238 -3
238 -6 0 -4 -7 -12 -15 -19 -12 -10 -65 -11 -248 -5 -271 9 -339 15 -345 33
-3 10 11 11 65 5 37 -4 175 -7 305 -8z m5411 -194 c47 -34 61 -61 32 -61 -9 0
-18 -7 -21 -15 -7 -18 -24 -20 -24 -2 0 7 -47 59 -104 116 l-104 104 -79 -69
c-43 -38 -134 -124 -203 -190 -161 -157 -240 -227 -247 -220 -4 3 113 126 258
274 l264 268 90 -86 c50 -47 111 -101 138 -119z m-2303 179 c0 -17 -29 -68
-80 -145 -26 -38 -108 -171 -182 -295 -74 -124 -184 -302 -244 -396 -60 -94
-122 -193 -138 -220 -16 -27 -31 -43 -33 -36 -6 16 32 89 122 232 40 63 137
221 216 350 283 465 339 549 339 510z m-929 -486 c-179 -367 -184 -377 -202
-383 -28 -9 7 72 147 342 162 311 207 393 212 378 2 -5 -69 -157 -157 -337z
m-3031 296 c0 -10 38 -95 84 -187 80 -158 148 -284 399 -738 58 -104 153 -278
213 -385 59 -107 177 -319 262 -470 86 -151 189 -336 230 -410 41 -74 93 -166
116 -205 94 -155 249 -435 241 -435 -3 0 -141 54 -307 121 -167 67 -350 138
-408 159 -58 21 -170 64 -250 95 -80 31 -208 80 -286 109 -77 30 -181 72 -231
96 l-90 42 -50 -25 c-59 -30 -326 -136 -553 -219 -91 -33 -255 -95 -365 -138
-199 -77 -565 -210 -578 -210 -15 0 -6 26 32 89 21 36 90 158 153 271 64 113
161 284 215 380 119 208 405 720 528 945 49 88 180 322 293 520 113 198 234
420 269 493 59 122 83 151 83 102z m-4152 -245 c230 -365 325 -506 452 -670
105 -136 141 -187 128 -183 -38 13 -436 550 -507 686 l-12 23 -42 -34 c-23
-19 -134 -96 -247 -172 -113 -75 -206 -141 -208 -145 -1 -3 24 -40 56 -81 107
-136 139 -196 79 -149 -25 20 -43 43 -237 305 -57 77 -116 155 -132 173 -30
35 -36 62 -14 62 17 0 64 -58 151 -185 37 -55 70 -101 74 -103 3 -1 55 34 114
79 59 44 172 122 251 173 l144 93 -57 94 c-32 52 -78 127 -104 168 -36 58 -44
78 -35 88 9 11 14 6 28 -24 9 -21 62 -110 118 -198z m8552 180 c0 -16 -45 -88
-159 -253 -69 -101 -148 -218 -176 -261 -68 -106 -83 -126 -91 -118 -4 3 5 21
20 39 14 18 30 38 34 43 5 6 7 16 5 22 -2 6 1 14 6 18 6 3 11 13 11 21 0 20
-14 6 -60 -61 -19 -27 -37 -52 -40 -55 -3 -3 -44 -54 -90 -115 -46 -60 -87
-112 -90 -115 -15 -15 -80 -101 -104 -137 -28 -46 -25 -54 8 -25 11 9 6 0 -10
-20 -28 -37 -64 -51 -64 -25 0 6 8 26 18 42 31 50 429 545 435 539 2 -3 16 10
30 28 15 18 33 41 42 51 22 25 19 33 -5 12 -11 -10 -22 -26 -25 -35 -3 -10
-12 -21 -20 -24 -8 -3 2 17 21 44 20 28 41 47 46 43 7 -3 8 -1 4 6 -4 6 17 46
50 94 118 170 204 271 204 242z m-4977 -265 c-3 -3 -8 1 -10 8 -3 8 -15 -8
-28 -35 -16 -36 -20 -55 -14 -77 5 -16 6 -33 3 -37 -3 -5 6 -13 20 -19 16 -6
26 -17 26 -30 0 -11 4 -20 10 -20 5 0 7 -8 4 -17 -3 -10 5 0 18 22 13 22 28
41 35 42 7 2 1 -13 -12 -33 -13 -19 -27 -44 -30 -55 -4 -10 -11 -19 -16 -19
-5 0 -9 -5 -9 -11 0 -23 -33 -79 -43 -72 -6 4 -8 0 -4 -9 3 -9 -5 -31 -18 -50
-13 -19 -39 -63 -58 -99 -56 -102 -120 -217 -179 -319 -30 -52 -92 -162 -138
-245 -46 -82 -108 -190 -138 -240 -31 -49 -69 -115 -85 -145 -17 -30 -38 -66
-47 -80 -10 -14 -31 -48 -46 -75 -16 -28 -65 -113 -109 -188 -44 -76 -86 -150
-94 -165 -8 -15 -17 -29 -21 -32 -4 -3 -10 -15 -14 -27 -9 -29 -23 -29 -31 -2
-4 11 -9 18 -11 16 -3 -2 0 -15 6 -29 10 -22 -3 -53 -122 -289 -74 -145 -141
-286 -150 -314 -21 -62 -51 -84 -79 -59 -10 9 -16 20 -14 24 3 5 -1 11 -7 14
-10 5 -10 7 0 12 7 3 21 15 32 26 12 13 20 16 25 8 7 -12 0 -24 -16 -26 -5 -1
-13 -2 -19 -3 -5 0 -10 -5 -10 -11 0 -18 57 -11 64 8 3 9 10 28 16 41 9 22 9
22 -6 10 -16 -13 -16 -12 -5 9 6 12 16 22 21 22 6 0 10 9 10 21 0 12 4 17 11
13 8 -5 8 -1 0 14 -14 26 -14 42 0 22 9 -12 10 -12 5 4 -5 13 -2 17 9 12 21
-8 19 0 -7 26 l-21 21 5 -21 c6 -20 2 -22 -38 -22 l-44 0 0 120 c0 113 1 120
20 120 11 0 20 7 20 15 0 26 29 29 49 6 10 -11 21 -21 25 -21 3 0 6 90 6 200
0 134 -3 200 -11 200 -5 0 -7 5 -3 11 4 8 9 7 15 -2 6 -10 11 -11 19 -3 8 8 7
16 -6 29 -14 13 -15 18 -4 25 7 4 10 15 7 25 -5 11 -3 14 5 9 8 -5 9 -2 5 10
-4 9 -3 15 2 12 5 -3 20 3 32 13 24 20 24 20 4 36 -11 9 -14 14 -7 10 20 -11
43 14 32 34 -6 12 -5 18 3 18 17 0 16 -39 -1 -52 -11 -9 -10 -11 6 -11 13 0
19 7 18 21 -2 25 43 87 57 78 5 -3 7 -1 3 5 -3 5 -2 12 3 14 5 1 11 12 13 22
1 11 20 39 41 62 50 55 82 115 68 124 -7 4 1 15 19 28 20 15 27 27 23 39 -5
12 -3 14 8 8 12 -7 12 -6 1 7 -10 13 -8 18 14 33 18 11 24 23 21 36 -3 10 -2
17 3 14 12 -7 42 44 34 57 -4 7 -3 8 4 4 7 -4 12 -1 12 8 0 9 3 16 8 16 4 0
21 12 37 26 22 18 24 22 8 14 -28 -13 -29 -3 -2 30 11 14 17 19 13 11 -5 -10
-3 -12 5 -6 7 4 11 16 8 26 -3 11 -1 17 4 14 11 -7 40 50 31 61 -4 5 1 2 11
-5 15 -12 17 -12 11 4 -5 13 -4 16 4 11 11 -6 18 27 13 57 -1 5 2 6 7 3 5 -3
18 1 28 9 10 8 14 15 7 15 -7 0 -10 7 -6 16 3 8 12 13 21 9 12 -4 13 -3 2 10
-14 17 0 21 17 4 7 -7 9 -3 6 15 -4 20 1 31 21 47 15 12 25 24 22 26 -6 6 51
94 68 105 6 4 7 8 2 8 -5 0 0 10 12 23 12 13 19 27 15 31 -5 4 -1 6 7 4 8 -1
14 2 15 9 0 6 10 23 23 38 12 14 20 30 18 34 -3 5 8 20 25 35 16 15 27 32 23
38 -4 7 -3 8 4 4 10 -6 23 10 34 39 1 6 6 9 10 8 10 -4 20 35 12 48 -4 7 -3 9
2 6 12 -7 23 1 44 27 12 16 12 18 1 11 -10 -6 -12 -4 -7 4 5 7 15 10 23 6 14
-5 14 -3 2 11 -11 14 -10 15 5 12 12 -2 20 4 21 15 2 9 -1 15 -6 11 -5 -3 -6
-10 -3 -16 5 -7 2 -8 -6 -3 -10 6 -8 12 9 26 13 11 19 23 15 30 -4 7 -3 9 4 5
11 -7 52 44 52 65 0 7 3 10 6 7 3 -3 19 7 36 23 28 25 30 30 17 46 -13 16 -12
17 2 5 14 -10 18 -10 23 4 3 9 3 21 0 27 -3 7 3 1 14 -13 12 -14 18 -27 15
-30z m1856 26 c114 -41 182 -75 270 -133 47 -31 87 -58 89 -58 1 -1 -5 -16
-14 -34 -20 -41 -13 -60 62 -178 33 -50 79 -128 103 -173 66 -120 61 -116 102
-95 49 26 239 154 239 162 0 16 -103 191 -133 226 l-32 38 -60 -58 c-49 -48
-165 -123 -189 -123 -23 0 4 25 66 61 67 39 158 120 158 140 0 17 -79 49 -164
65 -100 20 -109 30 -13 14 95 -15 176 -49 219 -92 20 -20 64 -83 97 -140 33
-57 64 -109 69 -117 7 -12 28 -2 104 47 52 34 104 62 116 62 12 0 61 -21 109
-46 49 -26 204 -107 345 -180 142 -73 282 -149 311 -168 30 -20 59 -36 65 -36
6 0 12 -3 14 -8 3 -8 131 -85 183 -111 50 -24 254 -161 350 -234 214 -163 379
-310 638 -571 43 -43 155 -170 248 -282 94 -112 172 -204 175 -204 15 0 -57
109 -126 190 -104 122 -184 221 -194 240 -5 8 32 -25 81 -75 103 -105 191
-218 254 -328 24 -43 59 -99 77 -124 18 -25 31 -47 29 -49 -10 -11 -41 12 -75
57 -20 26 -123 148 -228 271 -218 253 -510 552 -664 679 -280 229 -557 425
-576 407 -5 -6 -26 -439 -40 -847 -7 -191 -7 -193 13 -187 38 12 264 56 288
56 33 0 40 -15 8 -18 -14 -1 -86 -13 -161 -27 -74 -14 -139 -25 -144 -25 -4 0
-9 -37 -10 -82 l-2 -83 -3 78 c-3 52 -8 77 -16 77 -7 0 -95 -18 -196 -40 -109
-24 -192 -38 -205 -33 -20 6 -20 7 3 13 35 8 40 35 47 267 l7 201 -69 -18
c-38 -10 -113 -28 -167 -40 l-98 -22 6 -56 c16 -150 16 -140 5 -107 -5 17 -13
58 -16 93 -4 34 -10 64 -13 66 -3 2 -46 -5 -96 -14 -49 -10 -93 -15 -97 -11
-4 3 -17 63 -28 131 -21 127 -91 492 -96 498 -6 9 -200 -137 -284 -213 -95
-87 -180 -145 -212 -145 -32 0 -19 18 36 48 47 27 79 52 208 163 l30 25 -118
240 c-65 131 -120 241 -121 243 -1 2 -14 -6 -30 -17 -35 -24 -266 -163 -312
-186 -22 -12 -32 -13 -29 -5 2 6 84 60 181 118 97 58 177 112 177 119 0 7 -11
29 -23 50 -13 20 -45 75 -72 122 -26 47 -65 113 -87 148 l-41 62 -41 -33 c-75
-61 -289 -207 -303 -207 -24 0 -8 14 104 90 206 140 233 166 233 221 0 76 -82
137 -300 226 -115 46 -127 57 -21 19z m3601 -207 c-17 -30 -159 -205 -240
-294 -40 -44 -80 -91 -88 -104 -15 -22 -14 -25 16 -50 41 -33 41 -46 1 -25
l-32 16 -108 -108 c-127 -126 -141 -119 -18 10 46 48 88 95 93 104 7 12 -1 24
-34 51 -24 20 -98 83 -164 140 -66 57 -144 122 -173 145 -53 41 -75 78 -33 56
21 -11 343 -272 394 -319 l28 -26 17 25 c9 13 70 90 136 170 66 80 138 166
159 192 37 46 67 57 46 17z m1463 -106 c-22 -21 -47 -52 -56 -69 -15 -30 -91
-301 -127 -454 -17 -73 -24 -95 -40 -135 -4 -11 -16 -56 -26 -100 -9 -44 -32
-127 -49 -185 -18 -58 -42 -143 -53 -190 -23 -97 -55 -187 -77 -216 -17 -22
-15 -16 65 256 62 210 66 228 100 385 43 204 149 597 172 633 18 30 111 112
126 112 3 0 -13 -17 -35 -37z m-12428 -68 c180 -45 409 -109 540 -151 60 -20
217 -62 349 -95 132 -32 274 -70 316 -83 64 -21 187 -54 620 -164 71 -19 63
-9 128 -152 25 -56 51 -96 76 -117 54 -48 33 -40 -26 9 -27 24 -59 61 -70 83
-54 106 -74 118 -333 187 -82 22 -242 66 -355 98 -113 32 -304 84 -425 115
-121 31 -272 74 -335 95 -154 51 -180 56 -180 36 0 -9 -3 -16 -6 -16 -15 0
-394 124 -434 141 -25 11 -63 41 -84 66 l-39 45 64 -32 c35 -18 122 -47 194
-65z m12315 -3 c0 -14 -55 -40 -175 -82 -150 -52 -586 -177 -765 -219 -74 -18
-175 -43 -225 -56 -49 -13 -162 -41 -250 -61 -415 -95 -487 -114 -555 -150
-38 -20 -85 -51 -104 -70 -26 -25 -36 -30 -36 -18 0 27 51 66 151 116 80 39
138 57 384 117 333 80 414 100 470 111 22 4 59 15 82 23 23 9 102 29 175 46
221 49 748 204 808 237 29 15 40 17 40 6z m-12383 -157 c45 -159 53 -194 63
-295 5 -47 23 -127 40 -179 33 -103 35 -114 19 -91 -8 12 -10 10 -6 -10 22
-112 115 -423 158 -530 46 -116 59 -180 36 -180 -8 0 -25 -12 -37 -27 -12 -16
-61 -78 -109 -140 -48 -61 -126 -164 -172 -229 -46 -64 -96 -131 -111 -148
l-26 -31 5 28 c3 15 10 27 15 27 5 0 6 4 3 10 -8 13 25 61 38 53 5 -3 7 -2 4
3 -7 12 34 74 96 145 25 29 43 57 40 62 -3 6 -2 7 4 4 9 -6 73 83 73 103 0 6
5 8 10 5 6 -3 10 0 10 8 0 8 7 20 15 27 8 7 15 20 15 30 0 21 34 53 45 43 4
-5 5 -3 1 4 -3 6 -16 10 -27 8 -21 -4 -21 -4 -3 17 11 12 31 33 47 46 15 13
27 28 27 34 0 6 -16 49 -35 97 -19 47 -53 156 -75 241 -23 85 -55 202 -70 260
-16 58 -34 128 -40 155 -6 28 -22 86 -35 130 -13 44 -31 123 -39 175 -9 53
-29 129 -46 170 -34 83 -33 103 6 98 24 -3 29 -12 61 -123z m381 -268 c37 -35
108 -93 157 -129 55 -40 121 -102 168 -157 43 -50 80 -91 82 -91 1 0 6 7 9 16
4 11 -16 39 -61 87 -70 72 -69 75 5 24 24 -16 57 -33 75 -38 18 -6 149 -14
292 -19 143 -5 392 -15 552 -21 227 -10 299 -10 319 0 23 10 26 10 20 -4 -3
-9 -6 -23 -6 -31 0 -18 -60 -18 -328 1 -114 8 -335 19 -492 25 -157 6 -295 13
-307 17 -42 10 -24 -14 26 -36 27 -11 52 -21 56 -21 16 0 341 -126 425 -165
52 -24 104 -47 115 -51 17 -6 15 -8 -15 -15 -20 -4 -42 -3 -53 3 -10 5 -21 7
-25 4 -3 -3 0 -6 6 -6 18 0 81 -60 98 -92 13 -25 2 -19 -64 36 -85 71 -95 75
-386 197 -176 73 -226 89 -226 72 0 -21 62 -90 148 -165 123 -107 410 -330
468 -364 45 -26 56 -44 28 -44 -23 0 -50 16 -149 90 -102 75 -212 155 -298
214 -58 40 -197 179 -197 198 0 5 -9 6 -20 3 -11 -3 -20 -2 -20 4 0 5 -7 16
-15 24 -8 8 -16 20 -17 27 -5 19 -188 192 -243 230 -66 44 -104 79 -122 113
-8 16 -17 26 -20 23 -3 -3 4 -21 16 -41 23 -39 43 -155 61 -350 27 -292 88
-670 151 -940 21 -93 41 -180 44 -192 3 -13 3 -23 1 -23 -3 0 -21 51 -41 113
-19 61 -42 120 -49 130 -9 11 -12 31 -9 50 2 18 -16 147 -40 287 -25 140 -48
280 -52 310 -9 81 -43 343 -56 435 -20 138 -48 256 -70 291 -11 19 -18 34 -14
34 3 0 36 -28 73 -63z m13711 9 c9 -11 2 -19 -36 -42 -26 -16 -55 -32 -63 -36
-17 -9 -109 -67 -337 -211 -84 -53 -155 -97 -158 -97 -2 0 -26 -13 -52 -30
-26 -16 -55 -30 -66 -30 -10 0 -15 -4 -12 -10 4 -6 -1 -7 -11 -3 -12 4 -15 3
-10 -5 4 -7 5 -12 2 -12 -2 0 -13 -3 -23 -7 -31 -11 53 64 104 93 26 16 53 32
58 36 6 5 51 34 100 65 50 31 154 98 231 149 110 71 145 90 154 81 9 -8 11 -9
7 -1 -4 7 10 23 31 37 31 20 42 23 58 14 17 -9 18 -9 5 6 -7 9 -9 17 -3 17 5
0 15 -6 21 -14z m-2161 -151 c-6 -14 -16 -25 -22 -25 -7 0 -26 -24 -44 -54
-26 -41 -42 -92 -72 -227 -37 -166 -49 -209 -70 -254 -9 -19 -58 -165 -66
-195 -2 -8 -10 -40 -18 -70 l-15 -55 4 51 c3 28 23 109 44 180 38 129 57 210
85 378 10 60 23 101 41 128 l26 40 -65 -37 c-57 -32 -81 -39 -179 -50 -61 -8
-164 -23 -227 -35 -92 -17 -168 -23 -382 -27 -169 -3 -268 -2 -268 4 0 6 98
12 243 16 248 7 377 21 495 55 37 11 112 30 167 42 124 29 162 45 250 108 39
28 73 51 77 51 4 1 2 -10 -4 -24z m1114 -195 c30 -36 111 -139 179 -230 69
-91 168 -221 220 -290 80 -106 198 -283 273 -412 43 -73 -7 -4 -96 132 -52 80
-121 181 -153 225 -33 44 -78 105 -100 136 -64 91 -121 163 -138 178 -10 7
-17 19 -17 25 0 6 -8 19 -17 27 -26 23 -83 95 -118 148 -44 67 -77 101 -88 94
-6 -4 -7 -1 -2 7 4 7 2 16 -6 22 -8 5 -9 8 -3 6 6 -2 36 -32 66 -68z m-12266
-207 c101 -205 239 -555 230 -580 -7 -17 -26 -17 -26 1 0 7 -27 67 -61 132
-33 66 -76 163 -94 216 -18 53 -49 124 -69 158 -54 92 -97 198 -83 204 29 11
39 -2 103 -131z m10814 114 c0 -7 -28 -92 -61 -188 -165 -471 -169 -485 -136
-483 10 1 16 -3 14 -9 -7 -22 -26 -18 -43 10 -10 15 -28 39 -40 53 -34 38 -37
64 -16 112 10 24 22 56 26 72 4 15 9 26 12 23 3 -3 -4 -34 -16 -70 -20 -60
-21 -66 -6 -102 19 -45 28 -39 46 30 17 63 115 337 135 376 42 80 38 83 -27
27 -35 -30 -90 -75 -123 -100 -33 -25 -80 -67 -105 -93 -96 -100 -290 -224
-290 -186 0 6 22 22 50 36 60 30 139 93 245 195 44 42 96 87 115 100 19 13 58
45 87 72 28 26 57 48 62 48 6 0 11 5 11 11 0 13 -97 5 -205 -17 -66 -14 -291
-75 -471 -130 -90 -27 -104 -28 -104 -14 0 15 418 147 553 175 69 14 150 25
181 25 44 0 60 4 73 20 20 23 33 26 33 7z m1420 -340 c-15 -11 -221 -155 -315
-220 -136 -95 -304 -204 -327 -212 -10 -4 -18 -3 -18 3 0 9 167 126 487 341
79 53 143 100 143 106 0 5 -24 34 -52 65 -39 41 -35 37 17 -12 38 -37 67 -69
65 -71z m-13623 -47 c70 -50 164 -116 208 -148 75 -54 171 -115 313 -199 34
-21 62 -43 62 -50 0 -30 -68 -2 -180 76 -159 110 -380 260 -468 318 -72 46
-86 52 -100 41 -9 -7 -5 1 8 19 14 18 26 32 27 32 1 1 60 -40 130 -89z m16273
35 c-14 -8 -33 -14 -43 -15 -10 0 -16 -4 -12 -9 5 -9 -23 -23 -36 -18 -4 1
-16 -6 -27 -16 -12 -11 -26 -16 -34 -11 -7 4 -10 4 -6 -1 8 -8 -174 -95 -199
-95 -7 0 -13 -4 -13 -10 0 -5 -7 -7 -15 -4 -8 4 -15 1 -15 -5 0 -6 -3 -10 -7
-9 -5 1 -26 -7 -48 -19 -22 -11 -43 -21 -48 -22 -4 0 -50 -21 -102 -46 -52
-25 -97 -45 -99 -45 -3 0 -68 -30 -143 -66 -76 -36 -183 -85 -238 -109 -55
-24 -138 -61 -185 -82 -47 -22 -100 -43 -119 -46 -19 -4 -42 -13 -50 -20 -25
-21 -143 -69 -177 -71 -61 -5 -30 22 70 62 180 72 390 159 456 190 36 17 133
60 215 97 83 37 186 84 230 106 44 21 109 50 145 65 36 14 101 43 145 64 143
68 154 72 166 64 7 -4 9 -3 6 3 -4 7 24 22 71 38 42 15 84 31 92 35 8 5 22 9
30 9 8 0 4 -6 -10 -14z m-17785 -496 c4 -6 14 -8 22 -5 8 3 11 2 8 -3 -3 -5 0
-13 6 -17 6 -3 15 0 20 7 4 7 11 10 16 6 4 -5 1 -12 -7 -18 -10 -6 0 -7 30 -3
37 5 43 4 33 -7 -17 -18 -16 -29 3 -29 9 0 12 5 8 11 -4 7 -1 10 7 7 8 -3 13
-10 12 -16 -2 -6 10 -9 28 -7 33 5 103 -27 91 -40 -4 -5 -1 -5 6 -1 7 4 19 2
27 -4 8 -7 15 -10 15 -6 0 11 134 -61 154 -83 16 -17 16 -21 4 -26 -16 -6 -52
9 -278 117 -80 39 -162 77 -182 85 -22 9 -35 20 -31 26 4 6 0 8 -11 4 -10 -4
-15 -3 -11 3 8 13 22 13 30 -1z m17904 -73 c-2 -3 -22 -11 -44 -19 -22 -8
-193 -71 -380 -141 -187 -71 -365 -136 -395 -146 -30 -10 -106 -36 -167 -58
-62 -22 -113 -38 -113 -35 0 3 -6 1 -13 -5 -12 -10 -269 -104 -405 -147 -64
-21 -78 -14 -25 13 47 24 555 211 713 262 63 21 185 63 270 95 85 31 205 74
265 95 61 21 142 50 180 64 61 22 127 34 114 22z m-16829 -72 c63 -36 154 -85
201 -109 48 -24 104 -56 124 -70 21 -14 100 -57 176 -95 77 -39 139 -75 139
-80 0 -30 -149 22 -229 80 -15 10 -94 54 -177 98 -206 110 -357 193 -367 201
-8 8 1 41 12 41 3 0 58 -30 121 -66z m14488 29 c-4 -22 -106 -83 -338 -204
-96 -51 -226 -121 -288 -156 -61 -36 -118 -63 -124 -61 -27 9 149 114 622 367
36 19 76 43 89 53 30 23 43 23 39 1z m-7115 -122 c111 -43 308 -117 437 -165
254 -93 575 -211 845 -310 94 -35 215 -84 270 -108 55 -25 108 -48 118 -51 12
-5 17 -15 15 -35 -2 -33 -6 -27 102 -177 48 -66 128 -178 178 -250 51 -71 137
-193 193 -270 55 -77 144 -205 197 -285 53 -79 127 -176 165 -216 37 -39 67
-74 67 -77 0 -3 -26 -11 -57 -17 -95 -19 -217 -55 -423 -125 -107 -36 -265
-88 -350 -114 -361 -113 -535 -170 -1080 -355 -316 -107 -601 -204 -632 -215
l-58 -20 17 32 c9 18 27 47 41 65 13 17 22 32 19 32 -3 0 -30 -33 -61 -74 -47
-61 -109 -114 -173 -150 -7 -4 -29 0 -50 9 -32 12 -35 13 -19 0 10 -8 24 -16
30 -18 6 -2 8 -8 4 -12 -11 -12 -68 21 -146 83 -37 29 -78 55 -92 59 -101 24
-187 52 -415 136 -425 156 -914 320 -1510 505 -143 45 -502 146 -551 157 l-31
6 71 107 c95 142 157 228 289 402 209 274 362 492 482 690 78 128 96 146 174
171 36 12 136 50 221 84 85 35 214 84 285 109 444 159 1060 401 1149 452 23
13 49 24 59 24 10 0 109 -35 220 -79z m-2452 -163 c-1 -10 3 -18 9 -18 7 0 10
-7 6 -15 -3 -8 -1 -15 4 -15 6 0 10 -5 10 -11 0 -6 7 -17 15 -25 11 -12 12
-20 5 -35 -14 -24 5 -26 19 -1 6 9 11 12 11 5 0 -6 -4 -15 -10 -18 -12 -8 -13
-42 -1 -49 5 -4 7 4 4 16 -3 13 -3 20 1 17 4 -4 8 -23 10 -43 2 -21 2 -35 -1
-32 -3 3 -15 0 -26 -5 -16 -9 -17 -13 -6 -20 11 -7 11 -9 -3 -9 -9 0 -18 4
-20 9 -2 5 -31 5 -68 0 -36 -4 -114 -13 -175 -18 -162 -15 -415 -40 -455 -46
-19 -2 -64 -7 -100 -10 -69 -5 -320 -29 -480 -44 -82 -8 -169 -18 -335 -36
-22 -2 -74 -7 -115 -10 -41 -3 -169 -15 -285 -25 -115 -11 -298 -26 -405 -35
-107 -8 -223 -18 -257 -21 l-62 -6 24 -36 c13 -20 48 -77 77 -127 72 -123 94
-155 103 -147 5 4 5 2 2 -4 -11 -19 194 -336 840 -1299 152 -225 304 -453 339
-505 158 -237 274 -400 329 -464 l60 -70 6 30 c6 27 7 26 9 -11 2 -42 0 -78
-5 -83 -12 -13 -46 16 -76 64 -19 31 -59 90 -89 132 -30 42 -75 109 -100 148
-25 40 -132 202 -238 361 -547 819 -904 1359 -1017 1543 -136 218 -296 492
-292 497 2 2 123 14 268 28 145 14 332 32 414 40 83 8 211 19 285 25 74 6 191
17 260 25 69 7 163 16 210 20 47 3 148 12 225 20 77 8 230 23 340 35 110 11
292 29 405 41 113 12 247 24 298 26 102 6 101 5 65 76 -7 15 -11 32 -8 37 3 6
2 10 -3 10 -5 0 -16 31 -25 69 -19 78 -21 97 -5 61 6 -14 10 -33 9 -42z
m-3375 -348 c15 -25 55 -83 89 -130 90 -123 141 -205 240 -385 49 -88 105
-187 125 -220 20 -33 69 -121 110 -195 40 -74 133 -243 205 -375 73 -132 181
-332 240 -445 60 -113 127 -239 150 -280 81 -145 313 -556 365 -645 29 -49 74
-133 100 -186 53 -105 162 -287 250 -419 31 -47 67 -104 78 -127 l22 -42 -36
-63 c-20 -35 -73 -146 -119 -248 -46 -102 -124 -273 -175 -380 -50 -107 -120
-258 -155 -335 -35 -77 -76 -165 -91 -195 -15 -30 -73 -156 -129 -280 -95
-207 -177 -384 -299 -645 -26 -55 -53 -113 -61 -130 -7 -16 -56 -124 -109
-239 -53 -114 -96 -209 -96 -211 0 -1 -25 -55 -56 -120 -30 -65 -64 -139 -74
-165 -21 -53 -98 -211 -107 -220 -10 -9 9 44 38 107 26 56 61 150 99 268 7 21
19 46 27 53 8 8 12 21 9 28 -3 8 -2 14 2 14 6 0 39 64 47 90 1 3 4 12 8 20 8
22 17 90 11 90 -3 0 -13 -18 -23 -40 -10 -22 -21 -37 -24 -33 -4 3 -8 0 -8 -8
-1 -8 -2 -18 -4 -24 -1 -5 -3 -22 -3 -36 -1 -14 -12 -36 -24 -49 -13 -14 -28
-34 -34 -45 -6 -11 -15 -29 -21 -40 -6 -11 -31 -63 -56 -115 -46 -94 -76 -150
-88 -160 -3 -3 -12 -23 -20 -45 -17 -52 -34 -70 -26 -29 3 18 20 53 36 79 17
26 65 129 107 229 42 99 94 219 115 264 22 46 39 86 39 89 0 2 35 77 79 166
163 336 224 470 276 602 23 61 50 118 180 395 152 323 453 979 481 1051 35 87
121 234 135 230 62 -17 61 -18 21 55 -21 38 -61 103 -89 144 -28 41 -75 120
-105 175 -31 55 -73 132 -95 170 -22 39 -59 104 -83 145 -51 91 -214 395 -462
865 -101 193 -231 427 -288 520 -150 248 -216 365 -280 500 -58 121 -124 242
-241 437 -225 377 -275 468 -325 590 l-54 133 75 -80 c41 -44 87 -100 101
-125z m-842 173 c10 -37 -4 -96 -39 -166 -21 -40 -41 -76 -45 -82 -10 -13
-136 -266 -186 -372 -32 -69 -40 -80 -53 -70 -12 10 -13 9 -2 -10 10 -19 7
-31 -14 -72 -14 -28 -25 -58 -25 -66 0 -10 -5 -13 -12 -9 -6 4 -8 3 -5 -4 4
-5 -2 -32 -14 -59 -48 -112 -89 -244 -76 -247 6 -2 32 -9 56 -16 25 -6 73 -25
108 -41 35 -16 69 -29 76 -29 6 0 41 -11 77 -24 36 -13 94 -32 130 -42 36 -10
128 -44 205 -77 134 -56 229 -87 267 -87 10 0 18 -4 18 -10 0 -31 -140 3 -336
80 -71 28 -187 71 -259 95 -71 23 -183 65 -247 93 l-117 50 -26 -69 c-15 -38
-31 -69 -36 -69 -4 0 -6 -6 -3 -13 3 -8 -1 -27 -7 -43 -7 -16 -13 -33 -13 -39
-1 -5 -5 -21 -9 -35 -4 -14 -12 -41 -17 -60 -55 -200 -105 -361 -121 -387 -11
-18 -17 -38 -13 -44 3 -6 2 -14 -4 -18 -5 -3 -13 -28 -15 -55 -3 -26 -9 -51
-13 -55 -4 -3 -4 7 0 22 4 16 3 26 -1 24 -5 -3 -9 3 -9 13 0 10 5 16 10 13 5
-4 7 1 3 10 -3 8 -1 29 6 46 10 26 9 33 -7 44 -16 12 -17 16 -5 35 8 12 17 22
21 22 5 0 8 16 8 35 0 19 8 61 18 92 11 32 26 83 35 113 9 30 25 84 35 120 11
36 28 92 37 125 21 70 44 119 52 111 8 -8 34 14 28 24 -2 4 11 45 30 91 19 46
35 87 35 93 0 5 19 48 41 95 23 47 42 91 42 98 0 7 5 9 10 6 6 -4 8 0 4 10 -4
11 2 22 16 32 12 8 16 15 9 15 -8 0 -10 8 -7 23 3 12 7 32 8 45 0 12 5 22 10
22 5 0 7 7 4 15 -7 17 141 317 153 310 5 -3 14 4 20 16 10 17 9 20 -2 13 -11
-7 -11 -5 0 9 8 9 11 20 8 25 -3 6 2 9 12 8 11 0 17 6 18 19 0 11 4 27 8 36 4
9 6 20 5 25 -1 5 3 22 9 37 7 16 12 35 12 43 0 8 5 14 10 14 6 0 9 3 8 8 -1 4
9 31 22 60 25 53 45 66 54 35z m4490 -24 c-3 -5 0 -9 5 -9 23 0 9 -25 -56
-100 -38 -43 -124 -155 -193 -248 -74 -101 -130 -169 -138 -166 -7 2 -10 -1
-7 -7 4 -5 -42 -75 -102 -154 -59 -80 -148 -199 -197 -265 -77 -106 -90 -119
-105 -108 -14 12 -14 11 -3 -4 12 -15 6 -28 -55 -105 -38 -48 -79 -103 -92
-120 -23 -33 -41 -43 -41 -21 0 6 3 8 7 5 8 -9 56 61 49 72 -3 5 2 8 11 7 9 0
18 5 21 13 3 8 0 11 -7 7 -7 -4 -9 -1 -5 8 3 9 11 14 17 13 7 -1 11 6 9 17 -3
14 1 17 13 12 14 -5 16 -2 12 14 -4 14 3 26 24 41 24 17 28 26 24 50 -5 29 3
37 21 19 6 -6 10 -2 11 12 2 23 22 40 36 31 5 -3 4 4 -3 16 -6 12 -15 19 -20
16 -5 -3 -11 -1 -15 5 -3 5 3 10 14 10 12 0 21 5 21 10 0 6 5 10 11 10 6 0 9
-9 6 -20 -3 -11 -1 -18 4 -14 5 3 9 14 9 25 0 12 8 28 18 37 9 10 13 14 8 10
-13 -10 -36 11 -36 33 0 11 -4 19 -10 19 -5 0 -10 -9 -10 -19 0 -11 5 -23 10
-26 6 -3 10 -14 10 -23 -1 -16 -1 -16 -11 1 -5 9 -18 17 -29 17 -15 0 -17 6
-13 38 4 27 0 43 -11 54 -9 9 -16 33 -16 52 0 20 -4 36 -9 36 -11 0 -21 61
-13 75 3 5 9 -1 13 -15 4 -16 6 -2 7 38 1 34 -3 62 -8 62 -6 0 -10 -18 -10
-40 0 -29 -4 -40 -15 -40 -12 0 -15 16 -15 80 l0 80 -66 0 -65 0 3 28 c2 19 9
28 26 30 18 3 22 10 22 43 l0 39 49 0 c28 0 53 5 56 10 3 6 17 10 31 10 20 0
24 5 24 30 0 30 1 31 35 25 111 -17 99 -20 158 40 31 30 60 55 66 55 6 0 11 5
11 11 0 8 14 10 43 6 28 -4 36 -3 22 3 -17 7 -15 9 12 9 17 1 35 6 38 11 4 6
15 8 25 5 22 -7 53 7 89 39 13 11 21 16 18 10 -9 -15 32 -26 105 -29 32 0 64
-7 75 -16 17 -13 17 -13 4 4 -19 24 0 47 23 28 11 -9 16 -9 22 0 4 8 3 9 -4 5
-7 -4 -12 -1 -12 9 0 11 5 15 15 11 21 -8 29 17 16 43 -10 17 -9 20 4 15 8 -3
12 -10 9 -15z m4401 -29 c127 -10 293 -24 370 -30 133 -10 360 -32 690 -66 83
-9 193 -20 245 -25 52 -4 158 -15 235 -23 198 -21 495 -52 740 -76 328 -33
299 -28 281 -53 -8 -12 -38 -60 -67 -107 -29 -47 -84 -134 -124 -195 -110
-168 -142 -220 -220 -350 -39 -66 -122 -199 -184 -295 -62 -96 -123 -191 -135
-210 -12 -19 -85 -128 -161 -243 -77 -114 -171 -256 -210 -315 -109 -169 -569
-858 -633 -949 -65 -93 -79 -109 -88 -101 -9 10 30 77 101 172 36 50 113 162
172 250 58 89 240 365 405 615 164 249 329 501 365 560 37 58 119 185 183 283
63 97 181 281 262 410 82 128 182 285 223 348 l74 115 -52 7 c-160 21 -315 39
-417 48 -63 6 -221 22 -350 35 -223 24 -404 40 -695 65 -71 6 -193 18 -270 26
-77 8 -228 23 -335 34 -647 64 -650 64 -650 80 0 12 -26 13 245 -10z m-13336
-45 c123 -29 241 -108 304 -202 28 -43 37 -69 47 -139 20 -139 -4 -298 -58
-383 -32 -51 -125 -152 -174 -187 -93 -69 -223 -90 -356 -59 -109 26 -150 54
-225 154 -70 94 -117 197 -119 262 -2 85 12 223 23 230 6 3 10 9 10 13 -3 21
2 34 19 56 l20 25 -10 -28 c-19 -52 -17 -53 113 -69 l122 -15 -131 5 -131 5
-6 -48 c-4 -26 -7 -85 -7 -130 0 -76 3 -87 44 -172 94 -192 221 -273 406 -259
47 4 95 7 108 7 12 1 22 5 22 9 0 5 14 11 30 15 17 4 41 17 54 28 13 12 42 37
65 55 46 37 82 100 119 207 21 58 25 90 26 190 1 113 -1 123 -27 173 -73 139
-244 237 -412 236 -140 -1 -297 -79 -368 -184 l-16 -25 9 30 c16 47 87 123
144 152 117 60 235 76 355 48z m2937 -87 c-30 -57 -90 -193 -134 -303 -44
-110 -103 -256 -132 -325 -93 -221 -93 -221 -281 -955 -21 -82 -35 -153 -31
-157 4 -4 27 8 51 27 24 19 49 35 55 35 15 0 -70 -71 -107 -90 -39 -19 -50
-46 -16 -35 13 4 27 13 31 19 4 6 10 7 14 4 6 -7 -52 -88 -63 -88 -4 0 2 9 11
19 24 27 2 37 -31 16 -14 -10 -59 -51 -100 -93 -40 -41 -73 -72 -73 -68 0 15
83 115 91 110 5 -3 6 1 3 9 -5 13 69 97 86 97 10 0 33 70 56 170 29 131 124
503 143 565 10 33 31 104 46 158 14 54 33 114 41 132 8 19 14 36 14 38 0 6
-92 31 -103 28 -5 -1 -6 3 -2 9 3 6 11 8 16 5 5 -4 9 -2 9 4 0 5 -6 12 -12 14
-7 3 -3 6 10 6 12 1 39 -6 58 -14 44 -18 49 -15 65 33 12 39 48 128 79 197 10
22 34 81 53 130 19 50 49 122 67 160 33 74 128 245 136 245 2 0 -20 -46 -50
-102z m19074 59 c63 -31 150 -96 150 -112 0 -2 -10 -9 -21 -16 -20 -10 -21 -9
-16 10 3 11 0 24 -5 28 -7 3 -8 1 -4 -5 5 -8 2 -10 -8 -6 -9 3 -13 11 -9 17 4
6 0 8 -10 4 -9 -3 -27 3 -41 14 -14 11 -39 24 -56 30 -16 6 -30 14 -30 19 0
14 -124 21 -172 11 -87 -20 -179 -72 -250 -141 -66 -64 -89 -75 -48 -23 11 14
17 29 15 33 -3 5 0 12 6 16 8 5 9 3 4 -7 -5 -8 -6 -12 -2 -9 3 3 5 8 4 11 -1
3 5 14 13 24 14 18 14 18 -15 0 l-30 -19 33 36 c73 78 216 130 342 125 62 -3
88 -10 150 -40z m-17505 -93 c32 -20 109 -61 170 -91 60 -31 171 -90 245 -133
74 -43 178 -100 230 -128 52 -28 96 -56 99 -63 7 -23 -49 1 -213 88 -89 47
-204 108 -256 136 -322 170 -350 187 -350 209 0 25 7 23 75 -18z m-1030 -147
c309 -129 505 -222 505 -242 0 -17 -40 -21 -56 -5 -11 11 -405 190 -581 263
-96 40 -123 56 -123 70 0 11 5 17 13 14 6 -3 116 -48 242 -100z m15172 66 c2
-6 -13 -17 -34 -24 -21 -7 -90 -34 -153 -62 -291 -125 -547 -229 -575 -233
-28 -5 -29 -4 -12 9 18 15 253 120 517 232 74 31 151 65 170 76 38 20 81 21
87 2z m2313 -101 c0 -10 -67 -32 -101 -33 -23 0 -23 -1 -4 -10 l20 -9 -20 2
c-11 1 -31 -3 -45 -9 -14 -6 -65 -22 -115 -36 -166 -47 -270 -77 -330 -96 -33
-11 -71 -22 -85 -25 -14 -3 -74 -20 -135 -39 -60 -19 -225 -69 -365 -111 -140
-43 -298 -91 -350 -107 -120 -38 -182 -51 -177 -35 4 13 178 73 427 146 96 28
252 76 345 105 261 81 636 190 774 225 69 17 127 33 130 35 8 8 31 5 31 -3z
m-16405 -187 c110 -53 272 -132 360 -175 88 -43 179 -86 203 -95 23 -10 42
-21 42 -26 0 -21 -53 -5 -170 52 -69 33 -145 70 -170 81 -135 62 -526 251
-534 258 -4 4 -5 13 -2 19 9 13 12 12 271 -114z m16840 68 c0 -27 3 -65 7 -86
5 -25 3 -35 -4 -31 -6 4 -6 -1 1 -14 6 -11 11 -29 11 -38 0 -10 14 -46 31 -82
23 -45 34 -60 40 -50 6 9 9 7 9 -9 0 -13 5 -23 11 -23 6 0 9 -7 6 -15 -4 -8
-1 -17 5 -21 7 -5 8 -2 3 6 -5 9 -4 11 3 6 7 -4 12 -11 12 -16 0 -15 91 -100
130 -122 19 -10 26 -16 15 -12 -46 15 -55 16 -55 5 0 -22 -61 22 -121 88 -33
35 -75 95 -94 134 -34 67 -35 74 -35 179 0 89 9 148 23 148 1 0 2 -21 2 -47z
m-4842 -438 c114 -237 227 -496 227 -520 0 -3 10 -27 22 -53 11 -26 21 -53 21
-59 0 -7 4 -13 10 -13 5 0 7 -6 4 -12 -2 -7 0 -21 5 -30 5 -10 5 -18 0 -18 -4
0 -32 62 -62 138 -106 270 -322 741 -376 822 -13 19 -24 41 -24 50 0 40 49
-46 173 -305z m1121 235 c-8 -8 -69 -37 -379 -176 -60 -27 -186 -86 -279 -132
-93 -46 -171 -81 -173 -78 -8 8 7 26 22 26 8 0 58 23 112 51 161 83 676 319
698 319 5 0 5 -4 -1 -10z m3676 -5 c0 -7 -71 -36 -100 -40 -14 -2 -53 -13 -87
-25 -35 -11 -129 -38 -210 -60 -82 -21 -180 -48 -219 -59 -170 -48 -652 -176
-731 -195 -35 -8 -63 -10 -63 -5 0 5 -7 9 -15 9 -9 0 -12 -6 -9 -15 5 -11 2
-13 -11 -9 -9 4 -20 3 -24 -2 -13 -19 -96 -49 -134 -48 -27 1 -35 -1 -26 -8
10 -6 7 -7 -8 -3 -13 3 -23 2 -23 -3 0 -5 -26 -15 -57 -22 -32 -7 -64 -15 -72
-18 -10 -4 -12 -1 -6 9 7 10 1 9 -18 -3 -33 -23 -37 -22 -37 2 0 14 7 20 23
21 12 1 27 2 32 3 6 1 33 5 60 10 80 12 96 16 91 25 -3 4 10 7 29 6 18 0 31 3
28 8 -3 5 4 6 17 2 15 -5 20 -3 16 3 -8 13 98 46 329 102 94 22 292 74 440
115 491 134 639 174 710 189 39 8 71 15 73 15 1 1 2 -1 2 -4z m-17074 -116
c58 -27 154 -70 212 -94 59 -24 148 -62 197 -86 50 -23 139 -63 199 -89 59
-26 104 -50 98 -54 -5 -3 -29 1 -53 9 -91 32 -276 109 -339 140 -36 18 -114
54 -175 80 -138 60 -262 121 -270 135 -13 21 29 8 131 -41z m-1246 -172 c47
-18 114 -41 150 -51 161 -45 570 -200 570 -217 0 -22 -81 -5 -193 40 -67 26
-167 63 -222 81 -81 27 -285 102 -367 135 -10 4 -18 1 -21 -7 -2 -7 -3 -5 -2
4 2 10 -1 21 -6 24 -11 6 -12 24 -1 24 4 0 45 -15 92 -33z m15860 3 c0 -13
-12 -18 -264 -96 -415 -130 -526 -161 -532 -152 -3 5 -4 11 -3 13 13 12 756
243 787 245 6 0 12 -5 12 -10z m-1061 -74 c-8 -8 -184 -78 -402 -160 -122 -47
-270 -105 -329 -130 -59 -25 -117 -46 -130 -45 -21 0 -20 1 7 14 48 22 265
111 325 134 393 149 546 204 529 187z m-12246 -127 c-5 -5 -75 -29 -154 -53
-182 -54 -223 -71 -216 -90 3 -8 13 -48 21 -88 8 -40 29 -120 46 -178 17 -57
33 -127 35 -155 l4 -50 -9 43 c-5 24 -25 86 -45 138 -19 52 -42 134 -50 182
-8 48 -17 96 -20 108 -8 26 23 41 227 104 169 53 177 55 161 39z m-442 -56
c-51 -92 -274 -784 -316 -977 -5 -23 -8 -27 -16 -15 -12 18 -3 78 20 144 10
28 22 68 25 90 15 80 136 476 166 542 11 24 20 48 20 55 0 7 11 35 25 61 14
26 23 53 19 59 -5 7 -3 8 6 3 10 -6 12 -4 7 9 -4 10 -3 15 3 11 5 -3 14 4 20
15 6 11 15 20 20 20 7 0 7 -6 1 -17z m541 -405 l3 -46 25 19 c43 33 134 95
159 108 46 25 10 -9 -57 -53 -37 -24 -84 -59 -105 -77 l-38 -34 0 -130 c0
-115 16 -308 27 -327 2 -4 0 -9 -6 -13 -5 -3 -10 -4 -10 -2 0 2 -7 48 -15 103
-9 54 -16 154 -16 222 0 67 -2 122 -6 122 -21 0 -293 -268 -293 -290 0 -21 42
-81 122 -174 37 -43 68 -83 68 -89 0 -6 -10 3 -22 19 -13 16 -59 72 -103 123
l-80 92 -18 -23 c-10 -13 -76 -85 -145 -162 -70 -76 -129 -142 -130 -147 -2
-5 10 -31 26 -57 17 -26 46 -78 64 -115 l34 -68 57 45 c64 50 143 117 257 217
41 36 122 101 180 144 120 89 253 198 323 264 30 29 47 40 47 30 0 -15 -280
-254 -383 -327 -29 -20 -95 -73 -147 -117 -142 -122 -285 -239 -306 -251 -16
-10 -17 -13 -4 -45 29 -68 182 -324 193 -321 15 4 80 56 145 114 44 39 258
214 310 254 13 9 5 29 -46 125 -53 101 -102 219 -102 249 0 26 20 6 30 -30 6
-21 29 -78 51 -126 22 -47 51 -110 64 -140 13 -30 27 -54 31 -54 4 0 50 35
102 78 108 87 137 107 107 72 -11 -12 -58 -52 -105 -88 -47 -36 -89 -68 -93
-72 -10 -8 31 -94 74 -157 16 -23 29 -44 29 -47 0 -2 25 -48 55 -100 31 -53
59 -104 62 -113 12 -30 -14 -4 -35 34 -29 57 -54 100 -112 193 -29 47 -62 104
-74 127 l-22 43 -150 -122 c-82 -67 -180 -148 -219 -181 -105 -89 -107 -90
-157 -125 -26 -18 -99 -77 -163 -132 -111 -95 -143 -119 -114 -84 18 22 172
151 244 204 33 25 63 49 66 53 4 5 -3 19 -15 32 -11 12 -30 40 -42 61 -65 119
-89 162 -105 185 -10 15 -23 39 -29 54 -7 19 -14 24 -23 18 -6 -6 -60 -49
-119 -96 -104 -84 -190 -147 -202 -147 -18 0 -1 22 27 34 17 7 48 27 68 42 77
61 144 117 187 155 l46 40 -22 51 c-23 55 -94 178 -102 178 -3 0 -53 -51 -110
-114 -58 -63 -109 -115 -113 -115 -14 -1 139 174 342 394 51 55 113 126 138
159 l46 58 -21 44 c-12 24 -24 63 -27 87 l-5 42 19 -51 c39 -106 27 -108 159
24 65 64 140 135 166 158 l49 40 -12 110 c-6 60 -11 120 -10 134 2 30 27 -127
31 -192z m12302 183 c-10 -9 -130 -47 -294 -93 -58 -16 -188 -53 -290 -83
-213 -63 -310 -86 -310 -76 0 11 197 73 400 127 96 25 227 62 290 81 200 62
231 69 204 44z m-13913 -140 c348 -101 702 -219 659 -220 -14 -1 -83 17 -155
38 -71 21 -204 60 -295 86 -234 66 -380 114 -380 126 0 16 34 10 171 -30z
m9844 -163 c-3 -51 -10 -149 -15 -218 -5 -69 -14 -224 -20 -345 -6 -121 -15
-245 -20 -275 -5 -30 -14 -107 -20 -170 -6 -63 -17 -169 -25 -235 -8 -66 -17
-154 -20 -195 -4 -41 -22 -160 -40 -265 -31 -173 -69 -394 -110 -645 -33 -200
-21 -177 -211 -376 -225 -236 -237 -249 -405 -459 -236 -294 -282 -349 -390
-469 -25 -28 -70 -82 -99 -121 -30 -38 -73 -90 -96 -115 -68 -74 -156 -180
-224 -270 -35 -47 -84 -107 -108 -135 -24 -27 -58 -70 -75 -95 -17 -25 -63
-81 -102 -125 -39 -44 -94 -109 -121 -144 -119 -154 -190 -242 -354 -441 -96
-116 -201 -244 -233 -283 -33 -40 -78 -94 -100 -121 -23 -27 -64 -78 -92 -112
-37 -48 -52 -60 -62 -52 -7 6 -13 17 -13 26 0 8 -8 24 -17 35 -11 13 -12 17
-4 12 11 -6 13 -4 8 8 -3 10 -2 17 3 17 6 0 10 -7 10 -15 0 -9 6 -12 16 -8 9
3 20 0 24 -7 5 -7 7 1 6 21 -1 30 -5 34 -33 37 -24 2 -40 -4 -63 -25 -27 -23
-31 -33 -27 -61 3 -18 2 -30 -3 -27 -5 3 -12 0 -16 -6 -4 -8 -3 -9 4 -5 6 3
16 -3 22 -15 7 -11 14 -18 17 -15 4 3 13 0 21 -7 13 -10 14 -9 4 9 -18 33 8
51 33 24 18 -20 18 -21 -10 -50 -16 -17 -34 -30 -40 -30 -7 0 -47 44 -90 98
-43 53 -105 129 -137 167 -90 107 -275 337 -353 439 -79 103 -193 245 -340
422 -55 66 -140 170 -190 230 -49 59 -155 188 -235 284 -167 202 -469 558
-680 800 -80 92 -218 252 -307 356 -90 104 -210 241 -268 304 -57 63 -113 133
-124 155 -13 27 -25 87 -35 181 -9 78 -27 211 -40 295 -29 183 -52 379 -66
584 -6 83 -18 222 -25 310 -42 462 -59 723 -69 1042 l-4 153 46 -31 c26 -18
81 -64 122 -104 74 -71 125 -111 289 -228 80 -57 81 -59 75 -92 -3 -18 -1 -58
5 -87 7 -29 21 -114 32 -188 10 -74 32 -205 49 -290 32 -169 62 -357 80 -490
6 -47 13 -93 16 -102 8 -27 89 -71 116 -63 18 5 19 4 8 -4 -12 -8 -6 -14 30
-31 25 -11 54 -27 64 -35 11 -8 28 -15 38 -15 10 0 18 -5 18 -11 0 -6 7 -8 16
-5 10 4 13 2 8 -6 -5 -8 -2 -9 10 -5 10 4 15 3 11 -3 -4 -6 24 -25 62 -42 37
-17 118 -61 178 -97 109 -64 274 -153 391 -212 l61 -30 46 -127 c24 -70 55
-158 67 -197 12 -38 43 -122 70 -185 26 -63 68 -171 93 -240 25 -69 65 -172
88 -230 22 -58 59 -158 80 -222 21 -65 55 -157 75 -205 35 -85 80 -208 203
-563 32 -91 75 -205 95 -255 21 -49 57 -146 81 -215 23 -69 66 -181 95 -250
29 -69 70 -177 92 -240 54 -152 102 -248 132 -260 12 -4 29 -22 36 -39 7 -17
15 -31 19 -31 8 0 42 90 76 200 12 41 71 203 130 360 148 392 150 399 202 545
25 72 65 182 90 245 25 63 76 203 113 310 38 107 98 278 135 380 36 102 84
235 105 297 22 61 74 203 116 315 151 403 204 557 204 593 0 14 176 117 363
214 62 32 189 98 282 146 94 48 204 107 245 129 41 23 94 50 118 61 23 10 46
23 52 30 5 6 16 58 25 116 9 57 35 214 59 349 25 135 47 265 51 290 9 61 42
253 55 317 13 59 47 96 226 244 169 141 240 203 259 228 10 13 13 21 7 17 -6
-3 -13 -2 -17 4 -4 6 -11 8 -16 4 -5 -3 -7 -10 -4 -15 3 -5 -1 -6 -10 -2 -13
5 -10 10 17 26 18 11 42 26 53 33 11 7 24 13 28 13 4 1 5 -41 2 -91z m2138 4
c20 -13 81 -66 135 -116 53 -50 127 -116 162 -146 36 -30 79 -67 95 -82 17
-16 33 -28 37 -28 12 0 49 112 74 225 24 105 34 135 34 104 0 -30 -52 -225
-76 -285 -28 -70 -25 -86 23 -124 16 -12 69 -61 120 -110 l92 -88 21 31 c21
31 20 24 -3 -34 -11 -28 -3 -37 166 -184 72 -63 94 -86 65 -69 -23 13 -132
107 -191 163 -46 45 -60 53 -67 41 -5 -8 -25 -62 -46 -119 l-37 -106 188 -182
c103 -101 185 -183 182 -183 -11 0 -104 84 -238 216 -75 73 -140 130 -144 126
-5 -4 -5 -2 -2 5 7 11 -87 95 -328 293 -56 47 -169 141 -250 210 -81 69 -181
150 -221 180 -40 30 -69 56 -64 58 5 2 55 -32 110 -75 55 -43 115 -89 133
-103 18 -14 84 -70 147 -125 159 -139 190 -161 201 -144 5 8 27 58 50 112 23
54 43 96 45 94 4 -4 -47 -140 -73 -197 l-16 -34 44 -39 c58 -52 201 -171 216
-180 17 -10 106 219 94 242 -5 9 -42 45 -83 81 -40 35 -113 105 -163 155 -49
50 -128 124 -175 165 -47 41 -124 111 -171 155 -47 45 -110 93 -140 108 -49
24 -51 25 -19 20 19 -3 52 -17 73 -31z m-7451 -167 c137 -52 331 -125 431
-161 100 -36 254 -94 342 -129 88 -35 268 -102 400 -148 132 -47 348 -124 480
-172 132 -48 304 -109 383 -135 l143 -47 -44 -17 c-25 -9 -76 -37 -114 -61
l-70 -45 -59 25 c-32 13 -160 64 -284 113 -299 120 -1312 538 -1470 608 -94
41 -157 78 -255 150 -136 99 -154 114 -141 114 4 0 120 -43 258 -95z m-5402
35 c41 -5 120 -9 175 -10 105 0 143 -11 115 -31 -20 -14 -238 -4 -350 16 -124
22 -124 22 -172 -38 -24 -30 -97 -115 -163 -189 -66 -74 -156 -177 -200 -228
-44 -52 -138 -155 -210 -230 -71 -75 -181 -192 -244 -259 -123 -133 -311 -308
-398 -372 -50 -38 -131 -75 -141 -65 -2 3 16 14 40 27 71 36 224 165 378 319
198 197 508 535 660 717 19 23 82 95 140 160 58 65 121 138 139 162 l35 44 60
-7 c34 -3 95 -11 136 -16z m10231 -20 c-46 -39 -135 -85 -316 -163 -82 -36
-269 -118 -415 -182 -146 -65 -332 -146 -415 -180 -82 -35 -220 -93 -305 -130
-85 -37 -259 -109 -386 -160 -127 -51 -244 -100 -261 -108 -30 -16 -31 -15
-89 27 -33 23 -81 55 -107 71 l-49 28 69 22 c37 13 194 69 348 125 338 123
531 192 770 275 99 34 227 81 285 103 58 21 130 47 160 57 30 10 190 66 355
125 324 116 328 117 365 118 24 1 24 1 -9 -28z m5365 5 c12 -3 92 -88 180
-192 87 -103 213 -245 279 -316 66 -70 135 -147 153 -170 59 -74 722 -728 773
-762 27 -19 74 -39 104 -45 30 -6 55 -13 55 -16 0 -2 -55 -3 -122 -2 -122 2
-174 -5 -163 -23 7 -10 -6 -12 -29 -3 -24 9 -19 34 7 34 12 1 47 7 77 14 l54
12 -330 330 c-455 452 -646 652 -804 838 -148 174 -195 231 -216 260 -12 18
-26 19 -241 17 -125 -1 -229 -4 -231 -6 -2 -2 5 -32 17 -67 38 -116 126 -529
136 -643 3 -38 18 -158 32 -265 28 -210 37 -450 17 -470 -8 -8 -13 23 -18 117
-8 144 -42 496 -56 588 -5 33 -12 78 -14 100 -23 177 -112 584 -145 660 -8 20
-5 20 228 17 130 -1 245 -4 257 -7z m915 -256 c46 -58 123 -154 171 -215 73
-93 279 -329 422 -484 60 -65 166 -190 166 -195 0 -12 -12 0 -85 83 -43 48
-135 148 -205 222 -209 222 -272 298 -408 489 -9 13 -22 28 -27 35 -74 82
-205 246 -205 258 0 12 79 -77 171 -193z m-16270 11 c-15 -52 -45 -138 -65
-190 -21 -52 -55 -143 -77 -201 -21 -58 -60 -153 -85 -210 -64 -145 -94 -220
-94 -237 0 -7 -11 -37 -23 -65 -13 -29 -30 -74 -37 -100 -10 -37 -24 -58 -64
-92 -48 -43 -76 -56 -76 -36 0 4 17 20 38 34 51 37 79 81 103 168 11 41 25 78
30 84 5 5 9 17 9 27 0 16 71 196 264 673 35 88 72 179 81 203 28 70 26 43 -4
-58z m-1191 41 c0 -5 -20 -34 -45 -64 -47 -58 -113 -147 -245 -333 -84 -117
-149 -192 -321 -369 -59 -60 -122 -128 -139 -150 -17 -22 -79 -91 -137 -153
-78 -83 -109 -110 -117 -102 -8 8 -7 15 4 23 9 7 26 26 38 42 12 17 120 129
240 250 120 121 247 253 282 293 78 88 226 286 285 380 8 14 47 63 135 173 17
21 20 22 20 10z m1616 -15 c43 -13 111 -29 149 -36 184 -32 620 -122 634 -130
14 -8 14 -9 -2 -16 -10 -3 -30 -4 -45 -1 -259 54 -352 72 -546 108 -251 45
-348 69 -354 87 -6 20 78 14 164 -12z m14304 -86 c0 -5 -2 -10 -4 -10 -9 0
-335 -63 -599 -116 -153 -31 -281 -53 -284 -50 -12 12 312 86 569 131 78 13
172 31 208 39 80 17 110 19 110 6z m-2131 -80 c-20 -71 -59 -180 -97 -277
l-21 -52 72 -54 c40 -29 140 -102 222 -162 83 -59 173 -125 201 -146 28 -22
55 -39 61 -39 6 0 32 48 58 108 52 115 95 196 102 188 2 -2 0 -12 -6 -23 -8
-14 -71 -143 -139 -284 -1 -3 32 -32 75 -65 64 -50 215 -177 261 -222 8 -6 17
-10 21 -7 5 2 43 56 86 120 42 63 81 118 86 121 17 10 9 -8 -19 -45 -16 -20
-46 -63 -67 -96 -21 -33 -46 -72 -56 -87 l-18 -26 56 -52 c30 -28 54 -53 51
-55 -2 -2 -30 17 -62 44 l-59 48 -112 -121 c-62 -67 -145 -152 -184 -190 -40
-38 -70 -73 -69 -78 2 -5 48 -58 103 -118 87 -94 101 -107 110 -91 5 10 51 60
101 112 50 52 123 130 161 174 69 79 133 141 88 85 -11 -14 -22 -27 -25 -30
-3 -3 -41 -48 -85 -100 -43 -52 -115 -132 -160 -178 -44 -46 -81 -89 -83 -97
-2 -8 11 -36 29 -62 l32 -48 -40 38 -40 38 -129 -143 c-71 -79 -188 -204 -260
-278 -113 -117 -194 -215 -194 -234 0 -3 57 -6 128 -7 70 0 136 -4 147 -9 12
-5 -41 -9 -139 -9 l-159 -1 -106 -111 c-100 -104 -108 -110 -121 -93 -8 11
-11 16 -6 12 12 -10 234 209 274 272 20 30 113 136 207 235 95 99 214 226 265
283 83 92 92 105 83 125 -6 13 -53 68 -104 124 l-94 101 -75 -62 c-157 -130
-238 -195 -342 -275 -60 -45 -108 -87 -108 -93 0 -5 38 -89 85 -186 47 -97 84
-183 82 -191 -4 -19 -167 304 -167 331 0 10 -2 18 -4 18 -2 0 -37 -32 -77 -71
-109 -105 -286 -257 -318 -274 l-29 -15 34 -104 c19 -58 44 -156 56 -218 12
-62 22 -114 23 -115 1 -2 32 6 69 17 75 21 120 46 111 60 -4 6 1 7 11 3 13 -5
15 -3 9 7 -6 9 -4 11 5 5 27 -16 -74 -76 -160 -94 -30 -7 -66 -19 -80 -27 -24
-15 -25 -14 -4 3 l20 17 -18 111 c-16 90 -75 296 -91 311 -2 3 -44 -20 -92
-51 -48 -30 -93 -55 -98 -55 -6 0 16 16 49 36 69 42 122 81 203 150 20 17 65
52 101 79 68 52 194 167 244 223 l29 34 -37 69 c-21 39 -57 116 -80 172 -22
56 -51 118 -64 138 -22 37 -55 119 -49 125 10 10 217 -415 228 -467 4 -17 35
6 360 271 152 124 542 505 536 524 -4 15 -329 286 -342 286 -5 0 -21 -16 -34
-36 -14 -19 -63 -69 -111 -110 -91 -79 -146 -139 -181 -199 -12 -20 -48 -54
-79 -75 -40 -27 -81 -70 -132 -137 -97 -129 -168 -199 -168 -164 0 5 8 12 18
15 10 4 60 58 110 120 51 63 122 141 158 173 36 32 73 72 81 88 8 17 83 96
165 176 101 99 149 153 146 164 -1 10 -52 51 -113 92 -60 41 -162 114 -225
161 -63 48 -129 97 -147 109 l-32 21 -36 -86 c-19 -48 -59 -125 -87 -171 l-51
-85 170 -165 c170 -166 218 -217 196 -210 -21 7 -385 359 -381 369 2 3 40 79
86 168 45 89 82 170 82 180 0 9 -24 33 -53 53 -277 190 -389 271 -383 277 3 2
21 -7 40 -22 19 -14 37 -26 39 -26 3 0 80 -52 172 -115 92 -63 171 -115 175
-115 7 0 114 313 125 368 4 18 10 30 15 27 5 -3 -1 -37 -11 -75z m-12274 -211
c39 -5 111 -16 160 -24 50 -8 131 -19 180 -26 50 -6 100 -15 113 -20 13 -5 42
-9 65 -9 23 0 79 -7 125 -15 46 -8 101 -15 122 -17 32 -1 37 -5 30 -18 -7 -13
-18 -15 -62 -9 -29 4 -93 12 -143 18 -49 6 -124 18 -165 26 -41 8 -120 19
-175 25 -215 24 -429 65 -420 80 5 8 53 5 170 -11z m14425 -15 c-30 -7 -158
-27 -285 -44 -126 -17 -277 -38 -335 -46 -130 -18 -257 -29 -250 -21 6 7 272
49 425 68 55 6 174 22 265 34 91 13 181 23 200 23 30 0 27 -2 -20 -14z m-7360
-254 c0 -5 -7 -10 -15 -10 -8 0 -15 -7 -15 -17 0 -9 -3 -13 -6 -10 -10 10 -45
-35 -39 -50 2 -8 1 -12 -3 -9 -4 3 -13 -4 -20 -15 -11 -17 -9 -19 10 -19 32 0
-376 -392 -557 -535 -27 -22 -86 -70 -130 -106 -108 -90 -241 -172 -265 -164
-13 4 -29 -2 -47 -19 -34 -32 -38 -32 -88 0 -22 15 -31 23 -20 19 61 -22 74
-23 86 -9 6 7 16 11 22 7 6 -3 7 -1 3 6 -8 13 19 42 128 136 39 33 79 69 91
80 113 107 361 328 495 440 52 44 120 103 151 130 91 82 119 106 156 131 38
25 63 31 63 14z m121 -200 c8 -132 -8 -2186 -21 -2550 -18 -518 -27 -529 -29
-35 -1 242 -6 933 -11 1535 -8 968 -7 1098 6 1118 8 13 23 22 32 20 14 -3 18
-19 23 -88z m7749 48 c0 -16 117 -182 146 -209 16 -14 46 -38 68 -53 33 -25
37 -26 27 -7 -14 26 -10 26 17 4 11 -10 53 -40 91 -66 39 -27 69 -52 67 -56
-3 -4 0 -8 7 -8 7 0 32 -14 57 -30 25 -17 64 -37 88 -44 l44 -13 -27 -14 c-46
-24 -19 -25 67 -4 46 12 118 28 161 37 42 9 77 20 77 26 0 5 -21 19 -47 33
-57 28 -298 127 -398 163 -38 14 -79 32 -90 39 -19 14 -19 14 2 14 28 0 324
-103 383 -134 25 -13 82 -35 128 -50 79 -27 112 -46 112 -67 0 -6 16 -7 38 -4
l37 6 -38 -35 c-44 -40 -205 -122 -257 -131 -26 -5 -12 6 55 41 92 47 154 94
124 94 -8 0 -55 -9 -104 -19 -105 -23 -202 -39 -279 -46 -67 -7 -163 -39 -191
-65 -11 -11 -72 -54 -135 -97 -124 -85 -153 -117 -257 -278 -77 -120 -75 -89
4 61 49 92 73 124 154 205 55 55 134 120 185 154 49 31 93 64 97 71 6 11 13
12 28 3 12 -6 33 -8 47 -4 24 6 25 8 9 16 -10 6 -26 8 -36 4 -14 -4 -34 7 -68
37 -27 24 -69 57 -92 73 -183 130 -261 218 -329 369 -12 29 -12 29 8 11 11
-10 20 -22 20 -27z m-7469 -18 c23 13 157 -99 389 -326 180 -175 325 -310 408
-377 90 -73 94 -79 85 -88 -6 -6 -39 -1 -89 15 -46 15 -80 21 -82 16 -2 -6
-10 -17 -18 -24 -11 -12 -11 -15 2 -20 8 -3 13 -2 10 2 -2 4 0 14 5 22 7 11 8
7 5 -12 -3 -16 -2 -28 2 -28 4 0 13 -10 21 -22 13 -22 13 -22 -5 -9 -48 37
-113 105 -107 114 3 6 1 7 -4 4 -6 -4 -78 60 -161 141 -83 81 -204 199 -269
262 -163 158 -261 275 -262 312 -1 18 28 29 43 17 5 -5 17 -4 27 1z m-7356
-20 c116 -11 238 -25 272 -31 35 -6 89 -8 123 -4 53 6 59 5 54 -9 -4 -11 -1
-16 10 -16 9 0 16 -4 16 -10 0 -13 -28 -13 -146 4 -54 8 -198 22 -319 31 -316
22 -335 25 -335 41 0 20 72 18 325 -6z m-785 -9 c0 -5 -15 -20 -32 -32 -18
-13 -65 -50 -104 -84 -39 -33 -106 -89 -150 -125 -43 -35 -111 -95 -150 -132
-40 -39 -87 -73 -109 -81 l-38 -13 68 -33 c62 -29 74 -31 120 -23 l50 8 -63
19 c-34 10 -65 22 -68 26 -12 20 52 6 187 -40 153 -53 259 -104 259 -126 0 -7
7 -18 15 -25 8 -7 18 -28 21 -49 4 -20 16 -53 27 -74 18 -35 59 -189 61 -229
0 -10 3 -18 7 -18 3 0 12 -20 19 -45 7 -25 16 -48 21 -50 25 -16 70 -184 69
-259 -1 -20 -2 -19 -14 4 -14 25 -86 255 -131 418 -13 46 -34 104 -48 129 -22
44 -28 48 -82 60 -69 16 -187 74 -304 150 -182 118 -322 176 -483 199 -27 3
-48 10 -48 15 0 14 55 11 161 -7 l96 -17 54 25 c55 25 78 43 231 178 47 41
121 97 164 123 43 27 101 64 128 83 49 35 66 41 66 25z m15196 -10 c-3 -5 -59
-12 -123 -15 -65 -4 -219 -14 -343 -22 -124 -8 -274 -16 -335 -19 -150 -6 -55
8 206 30 374 31 604 41 595 26z m-18352 -68 c4 -16 9 -141 13 -278 5 -220 4
-255 -11 -282 -19 -37 -58 -49 -134 -40 -69 8 -82 29 -82 137 l0 87 -322 -4
c-401 -4 -399 -4 -438 -37 -18 -14 -36 -24 -41 -20 -5 3 -9 0 -9 -5 0 -6 -5
-11 -11 -11 -8 0 -8 5 1 15 7 8 18 15 25 15 8 0 15 4 17 8 2 4 21 19 43 32
l40 25 348 3 347 3 0 162 c0 89 3 172 6 184 7 26 23 30 125 32 76 1 77 1 83
-26z m5539 -106 c64 -104 184 -262 197 -262 4 0 57 45 116 101 147 135 249
223 293 249 33 19 -9 -26 -79 -85 -70 -59 -209 -182 -289 -257 l-35 -31 29
-39 c16 -21 88 -99 160 -173 73 -74 135 -143 138 -153 7 -20 -261 253 -302
308 -14 19 -31 34 -36 35 -6 0 -35 -25 -65 -56 -30 -30 -86 -78 -123 -106
l-68 -51 57 -51 c60 -53 143 -115 157 -116 11 0 155 -108 163 -122 9 -14 -7
-4 -76 47 -30 23 -83 59 -117 79 -34 21 -92 64 -129 96 l-68 59 -42 -37 c-70
-61 -196 -220 -187 -237 5 -7 111 -120 237 -249 204 -209 334 -325 356 -319 9
3 7 -23 -2 -33 -4 -3 -91 75 -195 174 l-189 180 -54 -176 c-30 -96 -53 -185
-52 -196 1 -16 -6 -13 -35 19 -20 22 -66 72 -102 110 -54 58 -50 55 25 -18
l90 -87 60 182 61 181 -106 108 c-58 59 -125 131 -149 160 -24 30 -109 120
-189 201 -139 141 -145 148 -122 157 25 9 142 127 193 194 l29 37 -84 79 c-46
43 -82 81 -79 84 3 3 40 -28 84 -69 43 -41 82 -74 87 -74 5 0 9 -5 9 -12 0
-12 279 -298 322 -329 l28 -20 82 70 c46 38 107 92 135 119 l53 49 -28 35
c-15 19 -52 66 -83 104 -50 62 -159 232 -159 248 0 18 24 -13 83 -107z m16511
87 c3 -9 6 -141 6 -294 0 -244 -2 -279 -16 -284 -9 -3 -57 -6 -109 -6 -88 0
-93 1 -99 23 -8 29 -8 491 0 540 l7 37 102 0 c85 0 104 -3 109 -16z m-19297
-45 c28 -11 27 -11 -30 -29 -31 -10 -76 -27 -100 -38 -23 -11 -71 -32 -107
-47 -36 -15 -110 -50 -165 -78 -55 -27 -116 -55 -135 -62 l-34 -12 64 -43
c169 -112 366 -220 403 -220 9 0 17 -5 17 -11 0 -22 -71 0 -173 51 -119 61
-269 153 -310 190 -27 24 -28 28 -16 49 19 30 92 76 186 116 43 18 110 47 148
65 77 36 193 79 212 80 6 0 24 -5 40 -11z m-788 -224 c-38 -21 -194 -47 -256
-43 -60 3 -61 5 25 -51 52 -33 409 -385 536 -528 50 -56 154 -170 231 -255 77
-85 202 -223 277 -308 75 -85 161 -181 190 -212 l53 -57 45 9 c25 5 120 9 211
10 l166 0 57 -42 c31 -23 56 -45 56 -50 0 -19 -33 -6 -70 29 l-41 36 -182 -7
c-100 -3 -196 -9 -213 -12 -30 -6 -37 0 -125 102 -52 59 -134 152 -184 206
-49 54 -125 138 -168 186 -315 351 -809 857 -885 907 -35 23 -55 29 -103 29
-69 1 -77 16 -19 39 22 8 38 12 35 7 -16 -26 173 -23 285 4 30 8 66 14 80 14
l25 1 -26 -14z m1848 -32 c-3 -5 38 -8 92 -8 266 1 637 -12 656 -23 15 -9 -88
-11 -452 -11 -300 0 -474 3 -478 9 -4 6 -12 7 -18 4 -8 -5 -9 -3 -2 4 6 6 49
12 97 14 47 2 81 6 74 10 -6 5 -2 8 12 8 13 0 21 -3 19 -7z m-3346 -30 c226
-10 146 -21 -163 -22 -242 -1 -291 3 -271 23 8 8 240 8 434 -1z m17899 -2 c0
-14 -480 -24 -682 -15 -167 8 -175 9 -98 15 144 9 780 10 780 0z m-19721 -5
c-17 -18 -1042 -34 -1062 -18 -7 6 -40 13 -72 15 -33 2 210 4 539 5 330 1 597
0 595 -2z m21569 -75 c-1 -6 -215 -225 -474 -488 -258 -263 -492 -503 -520
-533 -27 -30 -79 -86 -116 -125 -36 -38 -84 -93 -106 -121 -37 -47 -46 -53
-92 -59 -66 -9 -469 5 -476 16 -3 5 106 9 246 9 l251 0 47 52 c223 246 550
581 1000 1022 63 61 139 139 169 174 50 56 80 78 71 53z m-15628 -230 c0 -13
-65 -19 -375 -37 -452 -25 -575 -28 -575 -17 0 16 17 19 110 22 47 1 162 7
255 12 94 6 258 14 365 18 107 4 201 8 208 9 6 1 12 -2 12 -7z m3312 -68 c-42
-61 -119 -206 -187 -355 -69 -149 -407 -812 -540 -1058 -35 -63 -174 -338
-310 -610 -136 -272 -255 -506 -265 -520 -42 -62 -293 -570 -285 -578 2 -2 14
3 27 12 12 9 41 16 63 16 41 0 302 36 465 65 47 8 182 30 300 49 279 45 427
69 690 112 118 19 298 48 400 64 102 16 250 40 330 54 187 34 910 152 975 161
36 4 55 2 70 -9 11 -8 18 -17 15 -19 -3 -3 -79 -17 -170 -31 -91 -14 -255 -41
-365 -60 -110 -19 -265 -44 -345 -55 -80 -12 -282 -44 -450 -71 -168 -27 -550
-88 -850 -135 -300 -47 -637 -101 -750 -121 -277 -48 -428 -69 -436 -61 -4 3
9 39 27 79 38 83 568 1138 579 1153 4 6 74 143 154 305 81 162 156 311 167
330 11 19 48 91 83 160 476 945 612 1197 624 1161 2 -6 -5 -23 -16 -38z m6235
-25 c16 -35 55 -107 87 -162 31 -54 79 -146 107 -205 76 -158 250 -505 259
-516 4 -5 46 -86 92 -180 290 -582 601 -1201 608 -1210 4 -5 31 -61 59 -123
29 -62 119 -249 202 -415 l149 -302 -37 -3 c-21 -2 -96 4 -168 13 -291 37
-437 57 -580 81 -82 14 -204 34 -270 44 -220 35 -1269 211 -1310 220 -22 5
-146 28 -275 50 -308 53 -604 108 -657 122 -25 6 -43 17 -43 24 0 18 -9 19
208 -16 103 -17 216 -35 252 -40 72 -12 281 -48 490 -86 74 -13 173 -31 220
-40 47 -8 117 -21 155 -29 210 -42 447 -84 825 -146 69 -11 172 -29 230 -40
58 -10 164 -28 235 -39 72 -11 155 -24 185 -30 93 -16 448 -60 488 -60 6 0 12
7 12 15 0 8 -52 119 -116 247 -64 128 -126 251 -136 273 -84 169 -501 986
-714 1400 -220 426 -254 492 -415 815 -177 356 -189 380 -189 390 0 26 19 4
47 -52z m4208 20 c7 -7 -73 -9 -264 -4 -151 3 -346 6 -433 6 -112 0 -158 3
-158 11 0 16 840 3 855 -13z m215 -283 c-6 -8 -9 -22 -6 -32 3 -10 2 -51 -3
-91 -13 -101 -120 -538 -138 -559 -13 -17 -14 -17 -8 4 3 12 8 30 10 40 2 10
13 63 25 118 59 276 80 382 80 407 0 15 5 30 10 33 6 4 8 10 6 14 -5 7 10 85
21 111 5 11 8 9 11 -8 2 -13 -2 -29 -8 -37z m-13951 -14 c18 -12 -3 -15 -209
-36 -221 -22 -395 -42 -465 -54 -72 -12 -317 -32 -323 -26 -3 2 -2 11 1 20 5
11 22 15 74 15 97 0 303 19 333 30 14 5 126 18 250 30 124 11 241 21 260 23
19 2 42 4 50 5 8 1 21 -2 29 -7z m12418 -42 c-31 -28 -85 -85 -119 -127 -172
-214 -420 -482 -538 -582 -42 -36 -114 -98 -160 -139 -67 -60 -108 -86 -208
-133 -68 -33 -142 -70 -163 -84 -25 -16 -36 -19 -33 -9 3 8 74 48 157 89 147
72 158 79 322 223 94 82 216 199 271 259 212 228 266 289 320 361 31 41 88
101 128 133 87 73 102 78 23 9z m-14975 -296 c40 -56 102 -143 138 -194 75
-106 113 -154 179 -224 83 -87 95 -118 155 -390 30 -137 60 -288 67 -335 6
-47 15 -107 19 -135 10 -62 84 -364 104 -425 11 -33 12 -48 4 -55 -8 -7 -9 -5
-5 7 3 9 2 18 -3 20 -19 7 -152 517 -170 649 -5 41 -27 155 -49 254 -21 99
-45 214 -51 255 l-13 75 -85 84 c-46 46 -115 125 -152 175 -74 100 -220 317
-240 356 l-12 25 20 -20 c12 -11 54 -66 94 -122z m15453 -28 c44 -9 168 -31
275 -50 221 -40 252 -47 312 -76 l43 -20 -60 7 c-33 4 -87 15 -120 25 -33 10
-100 25 -150 33 -49 8 -111 19 -137 25 -25 6 -90 18 -145 26 -123 20 -173 33
-173 46 0 10 19 8 155 -16z m-12876 -55 c-9 -5 -65 -18 -125 -30 -60 -11 -163
-31 -229 -45 -249 -51 -543 -105 -569 -105 -14 0 -26 3 -26 8 1 20 19 29 55
29 92 0 126 3 120 13 -4 6 5 10 20 10 14 0 45 4 68 9 47 10 77 16 332 67 248
49 393 67 354 44z m13727 -451 c-25 -96 -54 -208 -66 -249 -11 -41 -23 -88
-26 -103 -4 -15 -12 -26 -18 -24 -22 8 3 180 41 277 4 8 6 18 5 21 -1 4 3 22
9 40 5 19 12 48 14 64 9 49 26 95 36 95 5 0 9 5 9 11 0 5 -6 7 -12 4 -7 -4 0
5 16 20 15 14 30 24 32 22 2 -2 -16 -82 -40 -178z m-13809 106 c-20 -8 -89
-26 -152 -40 -64 -14 -128 -30 -143 -36 -15 -6 -68 -19 -119 -29 -50 -11 -142
-33 -205 -50 -129 -34 -145 -36 -145 -15 0 10 9 14 27 13 14 -1 39 3 56 10 46
18 194 52 227 52 17 0 44 4 61 9 35 11 142 41 266 76 47 13 103 24 125 24 l40
0 -38 -14z m12014 -304 c8 -37 7 -45 -8 -57 -50 -40 -169 -116 -255 -163 -73
-40 -95 -57 -91 -70 4 -13 3 -13 -5 -2 -12 17 -110 -33 -251 -127 -51 -34 -96
-61 -98 -58 -7 7 117 91 232 156 61 34 115 65 120 70 6 4 46 27 90 51 44 23
115 67 159 96 43 29 82 53 87 53 15 0 10 33 -16 124 -14 47 -25 90 -25 94 1
14 51 -123 61 -167z m-11722 -5 c-8 -8 -654 -221 -846 -279 -46 -14 -83 -21
-83 -16 0 5 12 14 28 20 31 13 807 264 837 272 25 6 70 8 64 3z m-1114 -46 c7
-8 25 -53 39 -100 92 -308 150 -494 173 -555 14 -38 40 -112 59 -162 18 -51
39 -103 45 -115 16 -30 20 -68 8 -68 -22 0 -56 52 -78 121 -13 41 -53 155 -88
254 -36 99 -82 227 -103 285 -45 123 -77 241 -81 290 -3 50 2 98 8 80 3 -8 11
-22 18 -30z m13583 15 c42 -14 86 -30 97 -35 11 -5 67 -23 125 -40 178 -53
260 -81 399 -134 138 -52 163 -78 30 -31 -41 15 -229 78 -418 141 -189 63
-346 116 -349 119 -13 13 47 3 116 -20z m-15073 -154 c-6 -5 -62 -21 -125 -35
-155 -35 -181 -41 -279 -66 -46 -12 -93 -23 -105 -24 -11 -2 -28 -6 -36 -9
-35 -13 -222 -57 -305 -72 -49 -9 -110 -22 -135 -30 -25 -8 -90 -23 -145 -34
-55 -12 -118 -25 -140 -31 -50 -12 -65 -12 -44 0 20 11 299 82 434 109 183 38
329 70 385 87 109 32 254 65 266 60 7 -3 14 -2 16 2 2 4 39 17 83 29 86 23
145 29 130 14z m16009 0 c11 -18 -51 -219 -147 -476 -163 -435 -258 -643 -437
-955 -50 -88 -170 -270 -177 -270 -3 0 1 10 9 23 74 112 243 417 289 517 31
69 81 177 112 241 61 129 151 375 170 466 6 32 17 62 24 66 7 4 13 13 13 20 0
7 -4 6 -10 -3 -5 -8 -10 -12 -10 -8 0 11 42 122 49 128 6 5 19 36 56 137 12
34 26 59 30 55 4 -4 4 3 1 16 -5 14 -3 22 4 22 7 0 10 7 6 15 -6 16 9 21 18 6z
m-13164 -82 c14 -41 33 -87 41 -104 9 -16 26 -57 38 -90 46 -122 45 -120 155
-345 52 -107 115 -233 141 -279 25 -45 44 -88 42 -95 -2 -6 -12 5 -22 24 -10
19 -38 69 -63 110 -67 110 -184 360 -263 560 -38 96 -76 189 -84 205 -25 49
-36 97 -22 92 6 -2 23 -37 37 -78z m-151 -89 c-23 -13 -315 -126 -469 -181
-74 -26 -197 -71 -273 -98 -75 -28 -142 -51 -148 -51 -33 0 19 24 158 75 87
31 172 62 188 70 23 10 395 149 505 188 8 3 24 6 35 6 17 0 17 -1 4 -9z
m13616 -215 c154 -53 286 -96 293 -97 6 -1 12 -5 12 -9 0 -4 12 -10 28 -13 54
-13 142 -49 142 -58 0 -15 -62 -1 -144 32 -39 15 -143 51 -231 80 -170 56
-388 135 -414 150 -13 8 -11 9 9 10 14 0 151 -43 305 -95z m-13490 -124 c-22
-20 -109 -63 -226 -110 -68 -27 -151 -62 -184 -76 -33 -15 -129 -56 -213 -91
-84 -35 -171 -73 -193 -85 -22 -11 -45 -19 -51 -17 -23 8 261 138 592 270 69
27 156 65 194 84 69 34 100 43 81 25z m-2745 -121 c0 -5 -11 -10 -25 -10 -14
0 -25 -4 -25 -8 0 -5 -24 -14 -52 -22 -59 -14 -276 -80 -443 -133 -60 -19
-171 -54 -245 -77 -74 -24 -169 -53 -210 -67 -300 -97 -509 -157 -518 -149 -2
2 18 11 45 19 26 9 75 25 108 36 33 11 121 38 195 61 74 23 216 68 315 100
229 75 387 125 400 126 6 0 24 7 40 13 45 19 132 46 210 65 39 10 79 22 90 26
54 24 115 35 115 20z m2910 -98 c0 -9 -101 -58 -410 -202 -96 -45 -231 -108
-300 -140 -113 -53 -195 -83 -179 -66 7 7 226 116 234 116 3 0 76 34 163 76
86 41 193 92 237 112 44 20 114 53 155 74 76 37 100 45 100 30z m-1121 -165
c6 -8 22 -45 37 -83 35 -94 122 -260 154 -298 60 -69 170 -267 170 -306 0 -11
5 -19 12 -17 7 1 20 -13 29 -31 10 -18 23 -41 31 -50 8 -9 19 -29 26 -44 6
-16 16 -28 22 -28 5 0 10 -9 10 -20 0 -23 27 -67 113 -185 l58 -80 -56 60
c-51 54 -195 270 -226 338 -7 15 -16 27 -20 27 -11 0 -99 143 -99 161 0 20
-56 135 -69 143 -14 9 -14 4 -1 -28 5 -14 6 -26 2 -26 -7 0 -62 85 -62 96 0 3
-20 39 -45 79 -25 41 -60 112 -79 158 -42 100 -46 180 -7 134z m14026 -87 c61
-26 171 -73 246 -103 75 -31 160 -67 190 -80 30 -14 95 -42 144 -62 97 -40
145 -65 145 -77 0 -13 -134 39 -455 177 -316 136 -435 190 -435 200 0 11 58
-9 165 -55z m-12830 -6 c-19 -14 -136 -81 -390 -222 -132 -73 -418 -212 -436
-212 -24 0 5 17 161 98 264 135 544 284 572 304 51 35 136 65 93 32z m11549
-77 c67 -41 164 -98 216 -127 52 -30 127 -74 165 -98 39 -25 84 -53 100 -62
17 -9 56 -32 88 -49 31 -18 57 -37 57 -42 0 -14 -138 64 -565 319 -81 49 -201
132 -190 132 5 0 62 -33 129 -73z m6957 -147 c12 -7 25 -7 37 -1 14 7 19 6 19
-4 0 -8 -5 -11 -10 -8 -5 3 -12 2 -16 -3 -3 -5 -28 -20 -55 -34 -26 -13 -64
-43 -84 -67 -19 -23 -40 -39 -45 -36 -6 3 -7 2 -4 -4 3 -5 -7 -29 -24 -54 -42
-64 -62 -131 -57 -195 3 -35 1 -54 -6 -55 -7 0 -7 -2 1 -5 6 -3 19 -32 29 -64
10 -32 22 -56 27 -53 5 3 4 -4 -2 -15 -8 -14 -8 -23 -1 -27 6 -4 10 -3 9 2 -4
23 6 17 59 -36 31 -31 80 -68 107 -81 55 -27 190 -52 214 -40 9 4 34 13 56 20
22 7 54 23 72 36 46 34 53 30 13 -8 -19 -17 -27 -29 -18 -25 22 8 34 -11 19
-26 -9 -9 -11 -8 -7 3 5 11 -2 16 -26 17 -20 2 -28 -1 -20 -6 18 -11 -28 -30
-60 -24 -14 3 -28 1 -32 -5 -7 -11 -106 -3 -123 10 -9 7 -13 6 -14 -3 0 -10
-2 -11 -6 -1 -2 6 -17 12 -31 12 -22 0 -24 2 -12 11 12 9 10 10 -8 6 -27 -6
-54 1 -47 13 3 4 -9 14 -26 22 -17 9 -31 19 -32 24 -1 5 -12 9 -24 8 -12 -1
-20 3 -17 8 3 4 10 5 16 2 6 -4 8 -2 5 4 -4 5 -17 8 -29 4 -14 -3 -19 -2 -14
7 4 6 12 9 17 6 5 -4 9 -1 9 4 0 10 -21 16 -42 12 -13 -2 -57 72 -79 134 -23
64 -32 230 -13 243 5 4 11 16 12 27 4 21 40 85 48 85 3 0 -1 -10 -8 -22 -7
-13 -12 -26 -13 -30 0 -3 -3 -10 -7 -14 -5 -4 -8 -17 -8 -28 0 -17 2 -18 10
-6 5 8 10 11 10 5 0 -10 16 16 51 85 9 19 27 42 38 50 12 8 21 20 21 28 0 8 5
10 13 6 9 -5 9 -3 -1 7 -11 12 -14 12 -22 -1 -7 -10 -10 -11 -10 -2 0 7 9 20
21 30 11 9 30 25 41 35 23 19 32 22 23 7 -3 -6 1 -7 9 -4 9 3 13 10 10 15 -7
12 13 11 37 -1z m-18231 -165 c0 -3 -19 -17 -42 -32 -24 -15 -83 -57 -133 -93
-179 -130 -566 -380 -590 -380 -18 0 3 23 43 46 87 51 477 311 512 341 69 59
148 105 208 122 1 1 2 -1 2 -4z m12195 -186 c39 -23 178 -96 310 -164 330
-169 466 -245 435 -245 -14 0 -74 27 -135 60 -60 33 -173 92 -250 131 -77 39
-174 90 -215 114 -41 23 -110 61 -152 85 -43 24 -78 47 -78 52 0 14 14 9 85
-33z m-12025 -157 c0 -4 -22 -44 -49 -90 -27 -46 -57 -104 -67 -130 -20 -53
-64 -135 -76 -140 -4 -2 -8 -7 -8 -10 0 -14 197 -1 515 33 72 8 198 19 280 25
83 6 227 20 320 30 432 48 529 59 650 70 72 6 186 18 255 26 69 8 242 25 385
39 144 13 373 38 510 55 138 16 259 30 271 30 22 0 59 -63 48 -82 -4 -7 -2 -8
4 -4 7 4 17 -7 26 -29 19 -44 137 -237 258 -422 51 -78 126 -195 167 -260 41
-65 117 -185 169 -268 126 -198 178 -286 152 -255 -12 14 -31 36 -43 50 -12
14 -40 54 -61 90 -22 36 -42 67 -45 70 -3 3 -7 11 -9 18 -5 26 -55 91 -65 85
-5 -3 -7 -1 -4 4 4 6 -11 35 -33 64 -22 30 -40 57 -40 62 0 4 -4 6 -8 3 -4 -2
-14 9 -21 25 -7 16 -19 29 -27 29 -9 0 -12 4 -9 10 6 9 0 18 -32 54 -7 8 -9
16 -6 20 3 3 -1 14 -10 23 -8 10 -23 37 -32 61 -10 23 -21 42 -27 42 -5 0 -6
5 -3 10 3 6 2 10 -2 10 -5 0 -27 27 -48 60 -21 33 -42 60 -45 60 -4 0 -13 12
-21 28 -8 15 -24 37 -36 49 -12 12 -28 32 -37 45 -20 28 -23 23 -30 -32 l-5
-45 25 30 26 30 -16 -32 c-18 -36 -20 -47 -8 -39 5 3 21 -18 36 -47 14 -29 34
-62 42 -74 12 -17 13 -23 2 -29 -7 -4 -10 -4 -6 0 4 5 3 13 -2 20 -41 49 -67
87 -141 196 -46 69 -87 133 -91 142 -8 20 15 43 36 35 10 -4 13 -1 9 9 -5 13
-17 15 -62 10 -31 -3 -130 -10 -221 -17 -210 -14 -475 -34 -705 -53 -471 -40
-578 -49 -820 -66 -143 -11 -339 -30 -435 -44 -96 -13 -218 -30 -270 -36 -52
-6 -158 -22 -235 -35 -77 -14 -203 -32 -280 -40 -77 -9 -216 -27 -308 -41
-200 -29 -217 -29 -217 -8 0 8 4 13 9 10 4 -3 35 1 67 10 33 8 79 17 103 20
73 7 61 16 -14 11 -38 -3 -62 -3 -52 0 9 2 17 8 17 12 0 4 9 7 20 7 11 0 20
-3 20 -7 0 -10 68 9 110 31 19 10 62 23 94 29 103 19 293 11 279 -12 -4 -6 0
-8 11 -4 10 4 30 7 44 7 21 0 24 2 12 10 -11 7 -5 8 20 4 19 -3 41 -8 48 -10
7 -2 21 0 30 5 10 5 37 11 62 14 52 6 62 10 148 48 35 16 73 29 85 29 18 0 19
2 7 10 -21 13 -84 12 -225 -5 -325 -40 -546 -53 -572 -33 -13 10 -1 48 23 78
7 8 13 18 13 23 0 4 8 21 17 39 12 23 15 46 11 85 -3 29 -1 55 4 58 5 4 9 2 9
-2 0 -5 7 -18 15 -29 8 -10 14 -14 13 -8 -2 6 9 25 24 42 14 17 24 33 21 36
-4 3 -1 6 6 6 7 0 9 5 6 10 -3 6 -1 10 4 10 6 0 11 7 11 15 0 8 4 15 10 15 5
0 6 7 3 17 -4 11 -3 14 5 9 7 -4 12 -10 12 -14z m-3110 -15 c0 -13 -64 -43
-87 -41 -7 1 -11 -2 -8 -6 2 -4 -37 -26 -88 -50 -154 -72 -263 -124 -457 -217
-102 -49 -232 -112 -290 -139 -58 -27 -134 -64 -170 -83 -36 -19 -102 -51
-147 -72 -67 -31 -80 -34 -70 -18 6 10 17 19 24 19 7 0 13 4 13 9 0 5 7 12 16
15 10 4 13 2 8 -7 -4 -6 1 -4 12 6 24 22 284 152 302 150 7 0 11 2 8 5 -7 6
131 62 152 62 7 0 10 5 7 10 -4 6 -3 9 2 8 4 -1 70 28 145 65 75 37 140 67
145 67 5 0 24 11 44 24 19 13 44 26 55 28 10 1 21 5 24 8 7 7 158 80 245 120
39 17 77 35 85 40 22 13 30 12 30 -3z m10775 -56 c112 -15 324 -39 540 -61
189 -20 261 -29 500 -64 55 -7 147 -19 205 -26 58 -7 116 -16 130 -20 17 -6
10 -7 -22 -3 -25 3 -59 1 -75 -4 -15 -5 -39 -6 -53 -2 -21 6 -22 7 -5 9 17 2
16 3 -5 10 -14 4 -34 8 -45 8 -16 0 -15 -2 5 -9 25 -9 -10 -7 -100 6 l-35 4
33 -8 c39 -10 58 -25 22 -17 -14 3 -44 8 -68 10 -24 3 -47 8 -51 10 -4 3 -48
8 -97 11 -49 3 -102 8 -119 10 -54 7 -159 24 -185 30 -22 5 -22 4 -5 -4 19
-10 19 -10 -3 -17 -34 -10 -8 -24 46 -24 28 0 41 -4 40 -12 -2 -9 10 -13 34
-14 21 -1 43 -6 50 -11 7 -6 27 -13 43 -16 17 -3 53 -11 80 -16 28 -5 80 -10
118 -10 53 -1 67 -4 67 -16 0 -9 -9 -15 -22 -15 -32 1 -304 26 -473 44 -77 9
-245 25 -374 36 -129 11 -252 25 -273 32 -21 6 -40 9 -41 7 -2 -2 -16 -26 -32
-54 -31 -56 -197 -325 -226 -367 -11 -15 -19 -31 -19 -36 0 -5 -12 -27 -27
-48 -16 -22 -37 -55 -47 -74 -11 -19 -24 -38 -30 -42 -6 -4 -11 -13 -11 -20 0
-7 -5 -13 -12 -13 -16 0 -23 -9 -28 -36 -3 -12 -12 -30 -22 -38 -15 -15 -16
-15 -5 1 10 13 10 17 0 21 -8 3 -6 6 5 6 10 1 16 5 13 10 -4 5 5 23 19 39 13
16 29 41 34 56 6 14 16 25 23 24 6 -2 13 6 15 17 3 16 2 17 -6 5 -7 -9 -11
-10 -11 -3 0 6 5 15 10 18 6 4 8 14 6 23 -3 10 -1 24 5 32 8 12 9 10 4 -7 -11
-41 12 -32 31 12 10 25 22 45 26 45 4 0 4 7 1 17 -5 12 -3 14 7 8 10 -6 12 -4
7 7 -3 9 1 27 8 42 8 15 14 28 14 29 -1 10 22 57 28 57 5 0 13 11 19 24 10 21
9 24 -5 19 -32 -12 -73 -46 -92 -76 -15 -26 -19 -28 -25 -14 -6 16 59 131 215
376 l66 103 55 -6 c30 -4 87 -10 125 -15z m3054 -66 c1 10 71 -100 71 -111 0
-3 10 -20 22 -36 18 -27 19 -33 8 -52 -11 -18 -11 -19 1 -9 13 10 23 -5 67
-93 29 -58 49 -110 46 -116 -4 -6 -3 -8 3 -5 10 6 23 -13 23 -33 0 -10 -27 -7
-37 5 -4 4 -3 5 4 1 6 -3 14 -2 17 3 4 5 -7 7 -25 4 -26 -4 -31 -2 -26 11 3 8
2 18 -3 21 -5 3 -7 19 -5 35 4 27 3 29 -11 15 -20 -20 -20 -20 -18 14 1 21 -3
31 -16 34 -12 3 -21 18 -26 41 -4 24 -11 35 -19 32 -17 -6 -27 46 -12 57 7 4
4 6 -8 5 -11 -2 -21 0 -22 5 -6 17 -2 37 7 37 5 0 7 -7 4 -15 -4 -8 -4 -15 -1
-15 3 0 8 7 11 15 4 11 -3 19 -20 25 -22 9 -26 15 -22 44 3 25 0 32 -9 29 -9
-4 -11 0 -6 13 4 12 3 15 -5 10 -8 -5 -10 -2 -6 9 5 11 2 14 -10 9 -17 -7 -19
-1 -9 35 l6 23 13 -28 c7 -16 13 -24 13 -19z m-11893 -188 c-10 -7 -55 -38
-100 -69 -44 -31 -144 -96 -221 -144 -77 -48 -209 -132 -293 -186 -84 -55
-157 -98 -164 -96 -14 5 59 64 137 110 101 59 336 207 415 261 121 83 213 137
230 136 12 0 11 -3 -4 -12z m12850 -92 c20 -8 72 -37 117 -63 45 -27 118 -68
162 -92 129 -68 240 -133 243 -142 2 -4 8 -8 12 -8 9 0 177 -96 210 -120 11
-8 8 -9 -15 -5 -27 6 -213 109 -225 125 -3 4 -27 18 -55 32 -132 64 -495 273
-495 284 0 7 9 5 46 -11z m-1633 -37 c-2 -4 10 -5 26 -2 17 4 44 1 59 -5 20
-9 36 -9 56 -1 15 5 25 6 22 1 -5 -7 50 -18 139 -27 78 -8 181 -29 186 -37 4
-5 24 -8 45 -5 24 3 61 -2 94 -12 l55 -18 -42 1 c-23 1 -38 4 -34 7 5 3 -21 5
-57 6 -63 1 -259 29 -292 41 -8 3 -28 5 -45 5 -29 -1 -30 -1 -5 8 20 7 15 9
-25 7 -73 -2 -301 25 -279 34 24 9 103 6 97 -3z m-10347 -340 c-19 -40 -66
-158 -106 -263 -80 -209 -195 -453 -235 -500 l-26 -30 26 43 c35 58 90 183
201 461 81 199 156 361 169 361 2 0 -11 -33 -29 -72z m1283 -115 c-42 -53
-642 -664 -663 -675 -15 -8 -11 1 13 28 102 118 639 664 654 664 5 0 3 -8 -4
-17z m10060 -165 c31 -67 132 -353 176 -503 14 -49 38 -128 52 -175 35 -117
37 -130 15 -90 -11 19 -41 107 -67 195 -26 88 -71 227 -101 309 -30 81 -54
153 -54 158 0 5 -13 35 -29 68 -37 73 -45 100 -32 100 5 0 23 -28 40 -62z
m-11374 -5 c-8 -39 -36 -99 -85 -183 -40 -69 -96 -169 -125 -223 -29 -53 -75
-127 -103 -165 -51 -69 -76 -111 -70 -117 2 -2 32 19 68 46 36 27 110 71 166
99 112 55 324 143 330 138 3 -4 -287 -165 -428 -238 -27 -14 -71 -42 -99 -63
-28 -21 -53 -36 -55 -34 -3 2 1 28 7 57 8 36 32 83 79 153 89 133 300 499 300
520 0 17 17 67 23 67 2 0 -2 -26 -8 -57z m11216 -98 c32 -129 66 -215 144
-371 29 -57 50 -104 48 -104 -17 0 -69 48 -66 60 3 10 0 9 -11 -4 -11 -14 -23
-17 -53 -13 -21 3 -58 9 -83 12 -24 4 -110 25 -190 47 -80 23 -158 42 -175 42
-39 1 -62 15 -44 27 16 10 39 6 224 -41 190 -49 253 -57 261 -37 8 22 -49 95
-103 134 -64 46 -64 46 7 16 54 -24 65 -33 84 -73 11 -25 25 -48 29 -51 5 -3
7 -19 5 -35 -2 -20 1 -29 12 -29 28 0 21 43 -25 154 -52 127 -126 415 -99 389
3 -4 19 -59 35 -123z m-9511 -10 c0 -3 -33 -42 -73 -88 -84 -95 -397 -467
-475 -565 -65 -82 -70 -87 -78 -80 -3 4 18 37 47 74 61 79 37 51 276 330 103
121 208 246 233 277 38 48 70 71 70 52z m-1280 -214 c0 -18 -178 -130 -315
-199 -77 -38 -203 -105 -280 -147 -181 -101 -395 -208 -401 -202 -9 8 48 43
111 68 33 13 101 47 150 75 50 28 185 102 300 164 116 62 229 126 252 141 38
26 174 108 181 109 1 0 2 -4 2 -9z m1563 -14 c-20 -32 -387 -522 -403 -537 -3
-3 -38 -46 -77 -96 -77 -97 -100 -120 -109 -111 -4 3 34 55 82 114 117 141
137 167 289 368 70 94 135 176 144 183 9 7 14 15 13 18 -2 3 10 21 27 40 32
34 49 45 34 21z m154 -274 c-52 -76 -138 -208 -192 -293 -103 -163 -253 -380
-262 -380 -8 0 37 73 179 287 73 111 168 255 211 321 100 154 135 202 147 202
6 0 -32 -62 -83 -137z m364 -95 c-37 -65 -235 -405 -284 -488 -28 -47 -72
-124 -99 -171 -42 -76 -88 -135 -88 -115 0 4 38 71 84 149 46 78 140 238 208
355 68 117 131 221 141 232 9 11 17 25 17 32 0 8 27 36 37 38 1 0 -6 -15 -16
-32z m239 -64 c-16 -18 -88 -155 -280 -526 -82 -159 -157 -299 -167 -313 -30
-40 -37 -28 -10 18 13 23 69 130 122 237 54 107 115 224 135 260 20 36 59 108
85 160 63 123 117 208 123 192 2 -7 -2 -19 -8 -28z m7127 -707 c226 -277 590
-767 569 -767 -6 0 -117 144 -196 255 -30 43 -60 83 -66 89 -6 6 -23 29 -37
51 -39 58 -102 138 -323 408 -57 70 -73 97 -60 97 2 0 53 -60 113 -133z
m-8235 -185 c-23 -31 -77 -109 -120 -172 -43 -63 -121 -173 -172 -245 -52 -71
-130 -186 -175 -255 -45 -69 -93 -134 -105 -145 -14 -12 -19 -14 -14 -5 34 57
220 330 309 455 59 82 130 183 158 225 80 120 149 211 155 205 3 -3 -13 -31
-36 -63z m-2045 -97 c137 -28 192 -62 368 -224 45 -42 118 -97 285 -218 14
-10 35 -28 48 -40 13 -13 27 -23 33 -23 6 0 7 -4 4 -10 -3 -5 2 -10 12 -11 13
0 14 -2 4 -6 -8 -3 -19 1 -25 9 -6 8 -15 16 -21 18 -11 3 -193 133 -265 189
-25 20 -84 72 -131 116 -122 114 -171 141 -304 165 -61 11 -165 23 -233 27
-120 6 -148 17 -67 26 64 8 208 -1 292 -18z m2543 -71 c-6 -14 -31 -60 -56
-101 -25 -42 -79 -136 -119 -208 -73 -132 -86 -155 -229 -420 -42 -77 -76
-132 -76 -122 0 14 149 295 327 617 43 78 154 260 158 260 3 0 0 -12 -5 -26z
m985 -250 c11 -3 36 -11 55 -19 19 -7 71 -23 115 -35 44 -12 125 -38 180 -57
55 -20 156 -50 225 -69 69 -18 118 -33 108 -33 -57 -2 -289 60 -648 174 -58
18 -118 36 -133 39 -15 4 -25 10 -23 15 5 8 67 0 121 -15z m-5267 -1113 c44
-23 332 -313 356 -358 45 -89 -20 -193 -123 -195 -51 0 -82 18 -147 90 -48 51
-53 55 -70 42 -18 -14 -18 -14 0 7 18 22 18 22 -68 112 -90 93 -106 120 -106
176 0 48 16 83 51 116 36 34 57 36 107 10z m15303 -61 c41 -33 77 -60 82 -60
14 0 7 -31 -15 -64 -34 -49 -379 -424 -397 -431 -10 -4 -40 20 -93 75 -43 45
-78 87 -78 93 0 6 42 54 93 106 50 53 143 151 205 219 63 67 117 122 121 122
4 0 41 -27 82 -60z m-7825 -1754 c3 -9 12 -12 21 -9 11 4 14 2 9 -5 -4 -7 -2
-10 6 -7 17 6 61 -31 53 -44 -6 -10 -49 -23 -112 -35 -58 -10 -101 51 -63 92
24 25 78 30 86 8z"/>
<path d="M25555 23825 c-72 -13 -161 -51 -184 -79 -7 -9 -17 -13 -22 -10 -5 3
-9 0 -9 -7 0 -6 -27 -40 -60 -75 -49 -53 -63 -76 -82 -136 -33 -107 -31 -230
5 -317 36 -85 93 -158 166 -214 93 -70 156 -91 276 -91 92 -1 105 1 167 31 85
40 213 160 251 235 42 83 60 184 47 266 -23 140 -126 292 -231 340 -68 31
-201 72 -229 71 -14 0 -57 -7 -95 -14z m403 -170 c93 -114 133 -286 89 -387
l-12 -27 -53 19 c-93 33 -509 256 -498 267 3 3 11 1 18 -4 13 -10 223 -121
398 -210 47 -23 91 -43 98 -43 17 0 42 61 42 102 0 48 -34 159 -66 219 -16 28
-51 71 -79 96 l-50 46 42 -21 c22 -12 54 -38 71 -57z m-412 -406 c31 -18 58
-38 61 -46 9 -23 -14 -61 -48 -78 -26 -14 -36 -15 -61 -4 -39 16 -78 69 -78
105 0 62 42 70 126 23z"/>
<path d="M19675 21189 c-181 -31 -459 -96 -692 -160 -134 -38 -508 -167 -638
-222 -33 -13 -71 -28 -85 -32 -21 -6 -101 -42 -350 -158 -14 -6 -41 -21 -60
-33 -19 -11 -93 -51 -164 -88 -139 -72 -298 -170 -571 -351 -308 -205 -563
-419 -974 -820 -176 -173 -260 -266 -366 -410 -33 -44 -74 -97 -93 -118 -28
-33 -102 -140 -102 -149 0 -4 193 6 585 31 319 20 448 30 660 51 55 6 233 19
395 30 162 11 340 25 395 30 55 5 197 14 315 20 311 16 331 21 375 109 9 18
76 117 148 220 72 102 191 274 264 381 74 107 182 265 241 351 328 478 353
515 467 694 60 94 141 216 182 272 78 109 253 370 253 378 0 6 15 8 -185 -26z
m-717 -329 c-16 -50 -28 -97 -25 -104 6 -14 302 -231 331 -242 9 -3 16 -10 16
-15 0 -20 -30 -7 -96 41 -139 101 -246 172 -251 166 -26 -25 -199 -469 -185
-474 5 -1 50 -27 101 -57 51 -30 110 -64 132 -75 21 -11 39 -27 39 -36 0 -16
-31 -1 -186 92 -106 63 -103 64 -142 -41 -49 -135 -104 -256 -118 -262 -6 -2
-87 39 -179 91 -91 53 -170 96 -174 96 -9 0 -20 -36 -51 -170 -11 -47 -22 -95
-26 -106 -5 -19 2 -24 63 -44 106 -35 406 -154 395 -158 -9 -3 -94 25 -336
112 -71 25 -132 43 -135 40 -3 -3 -22 -71 -42 -152 -20 -81 -40 -154 -43 -163
-5 -13 1 -19 25 -28 18 -6 30 -14 26 -17 -3 -3 -50 8 -104 24 -122 38 -344 94
-350 89 -2 -2 -10 -49 -18 -104 -9 -54 -23 -142 -33 -195 l-19 -96 41 -6 c23
-3 88 -15 146 -25 127 -23 89 -27 -48 -5 -53 8 -110 13 -127 11 -28 -4 -218
25 -376 58 -39 9 -74 14 -75 12 -2 -2 -8 -28 -14 -57 -14 -75 -24 -77 -17 -2
3 34 2 60 -1 58 -4 -2 -33 0 -65 3 l-57 7 6 -65 c4 -37 12 -109 19 -161 6 -52
10 -97 8 -99 -11 -15 -24 49 -44 225 l-11 102 -186 7 c-103 4 -211 11 -240 15
l-53 7 5 -91 c17 -290 18 -323 3 -329 -12 -4 -15 24 -21 161 -4 92 -9 169 -12
171 -3 3 -73 7 -157 9 -84 2 -165 7 -182 12 -23 6 -25 8 -8 9 12 1 24 9 28 21
21 66 157 233 217 267 36 19 47 15 13 -6 -58 -35 -130 -117 -174 -194 -24 -43
-42 -80 -39 -82 2 -2 73 -7 157 -11 l153 -7 -6 44 c-13 108 -16 384 -4 412 11
24 13 9 15 -115 2 -174 10 -245 27 -251 7 -3 110 -9 230 -13 189 -6 216 -5
216 8 0 35 -33 300 -48 388 l-17 94 -45 9 c-25 4 -89 6 -143 5 -63 -3 -90 -1
-75 5 34 13 234 2 303 -17 33 -9 108 -27 167 -39 121 -26 111 -30 123 53 3 25
17 100 31 167 14 67 29 161 33 210 l8 88 2 -68 c1 -65 -21 -229 -53 -397 -8
-41 -13 -76 -12 -77 2 -2 217 -56 346 -86 36 -8 66 -14 68 -12 4 3 72 365 72
382 0 6 -17 17 -37 23 -51 16 -325 131 -340 142 -12 10 -2 62 23 110 18 34
117 142 158 170 17 12 -4 -15 -47 -61 -83 -89 -132 -163 -124 -185 10 -25 359
-177 373 -163 9 9 33 240 34 318 l0 76 -47 11 -48 11 45 -6 c25 -3 49 -6 54
-7 6 0 13 13 17 29 l7 30 1 -30 c1 -24 10 -36 48 -60 60 -38 377 -195 382
-189 3 2 30 81 61 174 l56 171 -31 23 c-16 13 -67 45 -112 72 -45 27 -80 50
-78 52 6 6 71 -25 147 -72 42 -25 79 -46 82 -46 3 0 15 32 27 71 12 38 23 68
26 65 2 -2 -5 -36 -17 -76 -12 -40 -20 -73 -18 -74 46 -35 353 -206 370 -206
7 0 30 46 52 103 21 56 54 133 73 171 18 38 32 70 31 71 -2 2 -31 17 -65 34
-76 38 -233 130 -233 137 0 8 70 -25 129 -60 65 -39 127 -71 157 -80 18 -6 24
1 43 45 12 28 20 57 17 65 -7 17 56 214 68 214 3 0 -9 -41 -26 -90z"/>
<path d="M18276 20260 c-31 -93 -56 -174 -56 -179 0 -8 329 -201 344 -201 11
0 146 310 146 335 0 2 -30 21 -67 41 -54 29 -168 93 -305 170 -3 2 -31 -72
-62 -166z"/>
<path d="M17760 20237 c0 -59 -10 -172 -25 -282 l-7 -50 100 -43 c148 -62 284
-114 288 -109 5 5 84 310 81 312 -1 1 -72 36 -157 77 -85 42 -183 94 -217 117
l-63 41 0 -63z"/>
<path d="M17720 19873 c0 -18 -61 -366 -65 -372 -2 -4 19 -13 48 -21 85 -21
291 -78 308 -85 13 -5 21 14 43 112 15 65 34 140 42 167 8 27 13 50 11 50 -68
30 -378 156 -383 156 -2 0 -4 -3 -4 -7z"/>
<path d="M16900 19620 c0 -10 9 -64 20 -120 11 -56 25 -146 30 -199 17 -155
14 -149 68 -156 26 -3 59 -8 74 -10 18 -3 28 1 33 12 3 10 17 107 31 217 14
110 27 203 29 207 3 4 -38 14 -90 24 -53 9 -118 23 -145 30 -47 12 -50 12 -50
-5z"/>
<path d="M17207 19563 c-2 -4 -8 -35 -11 -68 -11 -96 -47 -339 -52 -347 -5 -9
138 -37 291 -58 44 -6 89 -13 101 -15 19 -4 22 4 43 153 13 86 27 175 31 197
5 22 6 43 2 47 -4 3 -89 25 -189 47 -100 23 -188 44 -196 47 -8 3 -17 2 -20
-3z"/>
<path d="M22875 20627 c-102 -67 -115 -80 -109 -101 3 -12 24 -70 46 -131 22
-60 55 -167 72 -236 l32 -126 296 146 c163 81 303 153 312 160 15 12 9 17 -46
46 -35 17 -112 60 -173 94 -116 67 -349 181 -369 181 -6 0 -34 -15 -61 -33z"/>
<path d="M22594 20445 c-71 -47 -132 -85 -136 -85 -5 0 -2 -15 6 -32 14 -33
217 -450 222 -456 2 -3 159 101 196 131 17 13 16 22 -17 143 -57 207 -119 384
-135 384 -5 0 -66 -38 -136 -85z"/>
<path d="M23536 20319 c-14 -11 -135 -73 -269 -138 -283 -137 -352 -174 -351
-187 1 -5 14 -70 29 -144 l27 -136 97 33 c53 18 155 58 226 88 72 30 164 67
205 83 l75 30 7 172 c4 109 10 176 18 184 9 8 10 -33 4 -172 l-7 -183 67 25
c37 14 99 42 137 62 76 40 97 40 53 -1 -38 -35 -83 -57 -174 -86 -41 -13 -78
-28 -82 -34 -4 -5 -8 -106 -8 -223 l0 -213 38 7 c20 4 96 19 167 33 l130 26 7
165 c3 91 9 220 12 288 3 77 1 122 -5 122 -5 0 -56 31 -112 68 -123 82 -239
152 -254 152 -6 0 -22 -9 -37 -21z"/>
<path d="M23455 19881 c-55 -21 -145 -59 -200 -84 -55 -25 -139 -57 -187 -72
-49 -14 -88 -32 -88 -38 0 -22 48 -319 52 -323 3 -2 47 5 99 17 52 11 105 23
119 25 104 19 306 69 312 78 10 14 10 436 1 436 -5 -1 -53 -18 -108 -39z"/>
<path d="M23892 19520 c-35 -15 -219 -50 -268 -52 l-44 -1 0 -121 c0 -67 -3
-171 -7 -233 l-6 -111 64 12 c35 7 112 23 170 36 l106 23 7 200 c4 110 10 213
13 229 6 30 1 32 -35 18z"/>
<path d="M12361 14856 c-8 -9 -12 -18 -10 -20 22 -20 165 -105 225 -133 66
-31 154 -58 154 -46 0 17 -54 105 -75 121 -32 25 -187 83 -240 89 -30 4 -44 1
-54 -11z"/>
<path d="M14573 14911 c-57 -59 -103 -111 -103 -116 0 -10 44 -60 149 -170 47
-50 105 -112 127 -138 23 -26 45 -47 50 -47 5 0 16 10 23 23 17 27 101 125
158 185 l42 44 -167 164 c-91 90 -169 164 -172 163 -3 -1 -51 -49 -107 -108z"/>
<path d="M18057 11164 c-1 -1 -63 -7 -137 -13 -178 -15 -193 -17 -420 -53
-107 -17 -247 -38 -310 -48 -63 -10 -105 -19 -92 -19 13 -1 21 -5 18 -9 -8
-13 315 20 479 50 61 11 125 21 143 22 17 0 32 3 32 6 0 3 57 6 126 8 70 1
132 6 138 10 6 3 17 7 25 9 8 1 18 8 23 15 6 9 7 6 3 -9 -5 -18 -3 -22 9 -17
9 3 13 10 10 15 -3 5 -1 9 5 9 5 0 13 -4 16 -10 7 -12 35 -14 35 -2 0 6 -97
41 -103 36z"/>
</g>
</svg>
