<svg version="1.1" id="Layer_1" xmlns="http://www.w3.org/2000/svg" xmlns:xlink="http://www.w3.org/1999/xlink" x="0px" y="0px"
	 width="100%" viewBox="0 0 1024 1024" enable-background="new 0 0 1024 1024" xml:space="preserve">
<path fill="#000000" opacity="1.000000" stroke="none" 
	d="
M468.057404,720.972656 
	C457.882111,711.078918 446.217804,708.020508 432.361511,708.833374 
	C414.258270,709.895447 396.044647,709.187256 377.880615,709.017700 
	C373.884735,708.980408 370.895203,710.117859 368.225800,713.072144 
	C365.103058,716.528198 361.670074,719.711792 358.274414,722.910278 
	C356.562653,724.522644 356.343384,726.054993 357.330383,728.214600 
	C366.887115,749.125549 354.296692,774.232605 329.002502,776.874634 
	C307.224213,779.149475 288.357727,759.983459 292.048584,736.753418 
	C295.763458,713.371826 321.065155,701.967468 338.994690,710.658447 
	C342.010498,712.120178 344.214325,711.548828 346.492157,709.126465 
	C350.942474,704.393860 355.691406,699.943665 360.211853,695.275024 
	C363.291809,692.094055 366.811371,690.643860 371.337341,690.694580 
	C387.334473,690.874146 403.334717,690.778503 419.333801,690.764771 
	C421.088593,690.763245 422.843262,690.617188 426.027771,690.473755 
	C418.858582,685.240723 412.909515,680.786499 406.845337,676.494934 
	C393.723480,667.208679 381.868042,656.508484 371.224457,644.492554 
	C369.004211,641.986023 366.665192,641.080200 363.421356,641.108521 
	C349.589905,641.229370 335.755463,641.259094 321.925079,641.086792 
	C318.228760,641.040833 316.417236,642.255554 314.946350,645.789368 
	C308.769653,660.629395 292.317932,669.152832 276.967529,665.892273 
	C260.853699,662.469543 248.933762,648.139954 248.820114,632.054871 
	C248.706680,615.999817 260.415161,601.733704 276.731903,598.046021 
	C291.773285,594.646545 308.680054,603.239624 314.865601,617.909363 
	C316.435577,621.632812 318.305725,622.953369 322.226685,622.865417 
	C332.363800,622.638000 342.509430,622.789124 352.596954,622.789124 
	C353.334869,620.212280 351.698364,618.923828 350.786438,617.495422 
	C334.232483,591.565674 323.779236,563.348633 319.174286,532.974670 
	C317.752228,523.594788 316.922424,514.131104 316.919189,504.622833 
	C316.902374,454.959015 316.892090,405.295166 316.893005,355.631348 
	C316.893219,345.266907 319.701782,342.431580 329.916077,342.712067 
	C335.405792,342.862854 340.889069,343.284058 346.371948,343.635040 
	C349.584625,343.840698 350.884460,342.385071 350.830750,339.202667 
	C350.732330,333.371552 350.644348,327.529602 350.896973,321.707153 
	C351.052399,318.123627 349.586273,316.466614 346.365356,315.045013 
	C334.264893,309.704468 327.037781,300.280548 325.812897,287.110382 
	C324.478760,272.765594 330.115021,261.365112 342.580444,253.812225 
	C359.217926,243.731445 381.757538,250.228714 390.691772,267.509613 
	C399.888428,285.298126 392.305786,307.299957 374.031677,314.921600 
	C370.230743,316.506866 369.019135,318.516998 369.236206,322.380096 
	C369.516266,327.364166 369.462128,332.381927 369.259705,337.373322 
	C369.109894,341.067688 370.699432,342.002258 374.091400,341.565948 
	C414.981476,336.306213 451.906311,321.427917 484.627136,296.242706 
	C490.708038,291.562195 496.581604,286.653809 502.132172,281.359314 
	C511.769379,272.166748 514.131287,272.130310 523.659363,281.159760 
	C544.834595,301.226959 568.972900,316.657898 596.085754,327.419617 
	C611.649658,333.597260 611.662354,333.569122 623.424866,321.810242 
	C637.685120,307.554413 651.992249,293.344971 666.162720,279.000488 
	C669.188049,275.938019 672.448853,274.484375 676.791077,274.587097 
	C685.952209,274.803772 695.123657,274.558777 704.286987,274.721405 
	C707.532349,274.778992 709.358093,273.837830 710.674622,270.625549 
	C717.192566,254.721924 732.731628,246.474487 749.429321,249.750580 
	C765.027710,252.810974 776.923096,267.179016 777.213806,283.310608 
	C777.493225,298.816467 765.844543,313.536743 750.420898,317.168457 
	C734.655090,320.880737 718.458984,313.487854 711.811218,298.678467 
	C709.475708,293.475555 706.651367,291.910736 701.291626,292.287231 
	C693.831421,292.811249 685.698303,290.826050 679.000671,293.179871 
	C672.075256,295.613800 667.747131,303.234131 662.284180,308.582733 
	C653.829956,316.860077 645.515442,325.280945 637.200439,333.699005 
	C635.977051,334.937500 634.174683,335.832550 633.943848,338.411560 
	C643.980896,340.714294 654.180359,341.714996 664.397766,342.700623 
	C675.544434,343.775909 686.658203,343.289093 697.805176,342.742584 
	C705.564941,342.362152 709.042908,345.723419 709.078674,353.310638 
	C709.180115,374.808838 709.160583,396.308136 709.071228,417.806519 
	C709.043701,424.425171 705.229919,428.491577 699.651123,428.365845 
	C694.336182,428.246063 690.850769,424.240814 690.817383,417.767212 
	C690.734009,401.601929 690.782593,385.435913 690.786682,369.270203 
	C690.788696,361.329376 690.796814,361.291168 683.040100,361.359528 
	C636.805603,361.766876 593.726929,350.344849 553.913635,326.812225 
	C539.387817,318.226410 525.998474,308.060547 513.378235,296.566437 
	C509.438812,298.425323 506.827179,301.770264 503.688232,304.362335 
	C463.986115,337.148010 418.626221,355.998535 367.261810,360.446930 
	C358.268280,361.225861 349.294769,361.400909 340.303070,361.284241 
	C336.831696,361.239197 335.181000,362.039001 335.190643,365.972015 
	C335.311218,415.135529 334.102692,464.337524 335.672363,513.451782 
	C337.072144,557.250488 353.877167,595.901367 382.147980,629.549011 
	C397.026428,647.257141 415.573822,660.500671 434.076263,673.887390 
	C459.048920,691.955322 483.986420,710.072083 508.878662,728.250549 
	C511.408569,730.098206 513.369995,731.067627 516.345886,728.861877 
	C550.877808,703.265015 586.837524,679.520386 620.153625,652.382751 
	C661.282410,618.881287 684.190857,574.759705 689.771118,521.890442 
	C692.015442,500.626892 690.272888,479.270508 690.765198,457.962708 
	C690.818909,455.639526 690.559570,453.288422 691.363647,451.027924 
	C692.876465,446.775208 695.869324,444.344482 700.395142,444.567566 
	C704.659241,444.777771 707.517517,447.226044 708.579773,451.419647 
	C708.982910,453.011047 709.123108,454.712952 709.102905,456.361053 
	C708.835083,478.181396 710.118164,500.045715 708.165161,521.814209 
	C706.006836,545.869995 699.746155,568.940979 689.787903,590.978821 
	C689.051636,592.608154 687.824158,594.090759 688.183350,596.932495 
	C694.502869,596.932495 700.906616,597.030823 707.304626,596.883240 
	C709.802734,596.825623 710.149170,594.383057 710.950562,592.616760 
	C721.474426,569.422180 751.242065,564.520691 768.099670,583.535278 
	C777.488586,594.125488 779.831970,606.544006 774.190491,619.803162 
	C768.474487,633.237549 757.721680,640.400696 743.448730,640.939758 
	C729.718689,641.458435 718.546692,635.287476 712.535156,622.772827 
	C709.518921,616.493713 705.939941,614.806458 699.621765,615.286926 
	C693.159546,615.778320 686.629456,615.471619 680.131836,615.357422 
	C677.517944,615.311523 675.826721,616.227600 674.417297,618.480896 
	C667.772827,629.103516 660.065125,638.930115 651.555298,648.118469 
	C649.975037,649.824707 649.289062,651.641296 649.306763,653.958008 
	C649.383240,663.956848 649.266907,673.957397 649.375427,683.955627 
	C649.450867,690.909180 656.093079,695.481934 662.498840,693.151550 
	C676.745544,687.968689 689.287292,691.175476 699.478943,701.903564 
	C709.250183,712.189087 711.879211,724.611816 706.546021,737.982849 
	C700.992676,751.905884 690.092346,759.239380 675.374268,760.062378 
	C651.614258,761.390808 633.766907,736.609436 642.155334,713.995056 
	C643.840698,709.451416 643.617798,706.412903 639.836731,703.650696 
	C632.998535,698.655029 630.675171,691.999390 631.470032,683.630249 
	C631.924316,678.846680 632.353149,673.801819 630.438232,668.208923 
	C625.297058,671.968201 620.785461,675.282898 616.257690,678.575317 
	C584.190430,701.893005 552.127808,725.217102 520.042725,748.510315 
	C514.559143,752.491455 511.325500,752.398499 505.539307,748.209534 
	C493.125458,739.222534 480.742004,730.193481 468.057404,720.972656 
M728.736450,597.386963 
	C728.223938,598.428040 727.621277,599.435181 727.213745,600.515808 
	C724.817139,606.869751 726.403137,613.865662 731.217773,618.396484 
	C736.010132,622.906311 743.380432,624.142578 749.275940,621.259766 
	C755.715942,618.110535 758.977722,612.920044 758.756348,605.683350 
	C758.556458,599.150818 754.530884,593.614807 748.318115,591.242371 
	C741.328430,588.573242 735.073242,590.389099 728.736450,597.386963 
M736.842041,298.910004 
	C747.978821,301.682159 757.787537,295.640686 758.697998,285.448242 
	C759.458557,276.933411 753.977112,269.191589 745.998352,267.511597 
	C737.900940,265.806641 730.017944,270.141113 727.145508,277.877869 
	C724.103394,286.071747 727.586426,294.135590 736.842041,298.910004 
M675.276733,741.740540 
	C685.474548,740.329407 691.414368,733.478821 690.721008,723.928162 
	C690.095642,715.313904 682.674194,708.830200 673.783875,709.131165 
	C665.217285,709.421143 658.427979,716.210327 658.150024,724.764404 
	C657.843323,734.209412 664.397461,741.040955 675.276733,741.740540 
M340.331512,734.333862 
	C336.166656,727.577515 329.938629,725.045776 322.419800,726.580261 
	C315.653931,727.961060 311.457733,732.475159 310.054626,739.370178 
	C308.681671,746.116882 311.241455,751.419312 316.370087,755.532898 
	C321.806366,759.893127 329.745026,759.874756 335.418335,755.803650 
	C342.014709,751.070190 343.868469,743.741821 340.331512,734.333862 
M346.252594,274.876404 
	C342.401398,280.861542 342.627777,286.786530 346.533722,292.644592 
	C350.946655,299.263031 359.631348,301.695435 366.878448,298.356354 
	C373.873871,295.133270 377.601044,287.215271 375.808289,279.708038 
	C374.247192,273.170990 369.974945,269.198639 363.741516,267.696350 
	C356.766357,266.015320 350.964752,268.466187 346.252594,274.876404 
M270.126068,641.252197 
	C276.377014,648.474121 285.299561,650.257385 292.361664,645.696045 
	C299.199463,641.279480 301.806000,632.845581 298.596954,625.520630 
	C294.831329,616.925415 284.728851,613.127686 276.403107,617.177429 
	C267.740173,621.391235 264.954498,631.130676 270.126068,641.252197 
z"/>
<path fill="#000000" opacity="1.000000" stroke="none" 
	d="
M539.740295,590.183716 
	C535.111572,590.176636 530.940063,590.310181 526.783569,590.118469 
	C523.262573,589.955994 522.089050,591.468384 522.176270,594.853577 
	C522.334961,601.013550 522.281616,607.181946 522.186890,613.344788 
	C522.088379,619.750854 518.623413,623.794189 513.272095,623.979614 
	C507.897247,624.165833 503.963898,619.829651 503.830933,613.292786 
	C503.705566,607.131042 503.666779,600.961060 503.845154,594.802063 
	C503.946045,591.318481 502.574646,590.036438 499.157227,590.140808 
	C493.997711,590.298462 488.820557,590.344482 483.667664,590.093689 
	C480.205292,589.925232 479.393494,591.513062 479.434631,594.542542 
	C479.520569,600.871582 479.453735,607.203552 479.382141,613.533508 
	C479.311951,619.736206 475.574097,624.078796 470.446869,624.030640 
	C465.189941,623.981262 461.735016,619.869873 461.660339,613.404785 
	C461.589172,607.241272 461.515503,601.073181 461.682037,594.913513 
	C461.761414,591.978516 460.984436,590.250366 457.868622,589.623779 
	C445.979156,587.232666 438.845001,579.862427 436.294281,568.137024 
	C435.598846,564.940430 433.914215,564.280518 431.026825,564.345703 
	C424.699280,564.488586 418.365082,564.450439 412.035492,564.357483 
	C405.893860,564.267212 402.170135,560.902954 402.019257,555.520447 
	C401.877197,550.452820 405.977722,546.703491 411.980499,546.616882 
	C418.476654,546.523193 424.978455,546.463806 431.471252,546.635681 
	C434.763428,546.722717 435.923187,545.432495 435.830109,542.236206 
	C435.679779,537.076050 435.643921,531.902222 435.847290,526.745544 
	C435.988434,523.166870 434.422760,522.097839 431.084595,522.178894 
	C424.924072,522.328491 418.756073,522.281799 412.593140,522.188293 
	C406.381470,522.094055 402.129181,518.377686 402.039948,513.156555 
	C401.947144,507.727264 406.274994,503.903870 412.783630,503.817352 
	C419.113556,503.733185 425.445709,503.722443 431.775726,503.789307 
	C434.416077,503.817169 435.835144,502.938995 435.801208,500.070099 
	C435.724609,493.598022 435.777161,487.124451 435.777161,480.504120 
	C432.904816,479.502502 430.265747,479.475128 427.645203,479.446716 
	C422.980804,479.396088 418.315491,479.436920 413.650757,479.409790 
	C406.354462,479.367371 402.084381,476.139771 401.991119,470.629181 
	C401.896210,465.022095 406.126404,461.696167 413.423676,461.661407 
	C419.088104,461.634430 424.762054,461.422821 430.413696,461.684296 
	C434.136963,461.856628 435.744812,460.427673 436.546570,456.862061 
	C439.064850,445.662231 446.236206,438.897797 457.340790,436.420837 
	C460.513885,435.713074 461.756317,434.324646 461.652130,431.029297 
	C461.452148,424.705353 461.552185,418.368347 461.664459,412.039154 
	C461.772430,405.953644 465.342102,402.008179 470.521210,402.009705 
	C475.729156,402.011292 479.294464,405.964081 479.368134,411.987518 
	C479.443512,418.150940 479.544525,424.320404 479.351959,430.478363 
	C479.234863,434.223724 480.364136,436.052399 484.423004,435.863953 
	C489.410400,435.632416 494.420441,435.686340 499.413269,435.846649 
	C502.661774,435.950958 503.870728,434.650940 503.799927,431.439362 
	C503.664093,425.278351 503.723450,419.111084 503.804077,412.947754 
	C503.890259,406.356781 507.551117,402.075806 512.973999,402.051758 
	C518.483032,402.027374 522.131592,406.227539 522.208313,412.853485 
	C522.279724,419.016937 522.325012,425.184082 522.185425,431.345154 
	C522.114136,434.492676 523.194519,435.935577 526.495911,435.841248 
	C531.822754,435.689026 537.158020,435.730957 542.487793,435.812714 
	C545.499756,435.858887 546.635193,434.469635 546.602417,431.555481 
	C546.529358,425.058990 546.539734,418.559967 546.633972,412.063690 
	C546.722351,405.970032 550.221619,402.045715 555.412292,402.003967 
	C560.671631,401.961670 564.223938,405.809998 564.328247,411.912415 
	C564.436340,418.241608 564.513855,424.578308 564.317932,430.902802 
	C564.219177,434.092316 565.174072,435.783142 568.454346,436.474548 
	C580.066040,438.922058 587.236816,445.978973 589.571594,457.691498 
	C590.166199,460.674286 591.654907,461.762604 594.729248,461.670837 
	C601.220459,461.477051 607.723938,461.551758 614.219177,461.679901 
	C620.266907,461.799225 624.156250,465.491333 624.011780,470.710907 
	C623.877869,475.547882 619.803223,479.287659 614.263977,479.385803 
	C607.768555,479.500854 601.265442,479.555878 594.773743,479.364716 
	C591.274353,479.261658 590.008423,480.593445 590.135315,484.031677 
	C590.319580,489.022980 590.361755,494.034210 590.130127,499.021423 
	C589.953003,502.833344 591.582397,503.958679 595.156555,503.846161 
	C601.148193,503.657501 607.151001,503.741150 613.147705,503.818939 
	C619.748474,503.904602 623.962952,507.558197 623.973511,513.049255 
	C623.984009,518.505005 619.727051,522.135132 613.073120,522.205383 
	C606.909485,522.270386 600.742310,522.318665 594.581360,522.173950 
	C591.365601,522.098450 590.085938,523.343201 590.154358,526.567383 
	C590.288147,532.870361 590.193665,539.178162 590.193665,545.904236 
	C596.989136,546.961487 603.425659,546.522156 609.848572,546.445740 
	C612.001404,546.420105 614.200195,546.328613 616.301636,546.699402 
	C621.185242,547.561340 624.401245,551.718628 623.981689,556.255432 
	C623.561707,560.796814 620.209290,564.117065 615.292786,564.298035 
	C609.302979,564.518433 603.299744,564.377441 597.302368,564.390015 
	C595.161865,564.394470 593.021301,564.390686 590.804688,564.390686 
	C590.051819,567.133301 589.519653,569.385254 588.815796,571.582275 
	C585.694885,581.324890 578.998901,587.279053 569.099060,589.413879 
	C565.495605,590.190979 564.132385,591.734863 564.302246,595.467224 
	C564.582214,601.618347 564.435242,607.793396 564.336060,613.956177 
	C564.238403,620.021729 560.741333,623.893188 555.484375,623.988098 
	C550.552551,624.077087 546.713623,619.776245 546.639954,613.921326 
	C546.566650,608.091125 546.307495,602.238403 546.703064,596.434631 
	C547.051636,591.321045 545.202576,589.327820 539.740295,590.183716 
M483.500000,571.940796 
	C509.476349,571.936035 535.452759,571.957703 561.429077,571.910217 
	C569.126221,571.896118 571.904297,569.290649 571.916138,561.872437 
	C571.968323,529.235718 571.961121,496.598724 571.895508,463.961975 
	C571.881348,456.932312 569.200867,454.131470 562.249512,454.114960 
	C529.279846,454.036713 496.309814,454.045807 463.340179,454.128510 
	C457.043854,454.144287 454.133606,457.073608 454.118866,463.387085 
	C454.041962,496.356689 454.042450,529.326660 454.110229,562.296326 
	C454.124298,569.140076 456.975159,571.786743 464.017242,571.899902 
	C470.176819,571.998901 476.338989,571.933655 483.500000,571.940796 
z"/>
<path fill="#000000" opacity="1.000000" stroke="none" 
	d="
M529.264404,482.547668 
	C543.206055,491.150208 549.875854,504.216858 547.027405,518.994629 
	C544.265442,533.323242 535.490662,542.978149 521.188965,546.445801 
	C507.817413,549.687988 495.946320,546.021545 486.898499,535.516113 
	C477.409790,524.498779 475.787994,511.727386 481.743988,498.648163 
	C487.432800,486.155579 497.531067,479.265381 511.570740,478.650421 
	C517.716125,478.381226 523.486023,479.537323 529.264404,482.547668 
M514.979248,496.522949 
	C511.143921,495.942078 507.721313,497.201874 504.505066,499.056122 
	C497.511444,503.088104 494.709106,512.010620 498.016571,519.408569 
	C501.510376,527.223389 509.958099,531.166504 517.749878,528.619324 
	C524.610779,526.376465 529.620605,519.746460 529.626526,512.901855 
	C529.632996,505.403900 524.599243,499.541870 514.979248,496.522949 
z"/>
</svg>